<?xml version="1.0" standalone="no"?>
<!DOCTYPE svg PUBLIC "-//W3C//DTD SVG 1.1//EN" "http://www.w3.org/Graphics/SVG/1.1/DTD/svg11.dtd" >
<svg xmlns="http://www.w3.org/2000/svg" xmlns:xlink="http://www.w3.org/1999/xlink" version="1.1">
<metadata>
Created by FontForge 20160407 at Sat Oct 29 22:40:13 2016
 By Jimmy Wärting
In 1992, I wanted to design a perfectly faceless typeface of my own. I chose Eau, meaning water in French, as the name. I planned to do two variations; a sanserif and a Roman serif style version. I could not decide on the design details for the Roman variation, so only the sanserif version was completed. Although I think that Eau Sans needs more refinement, I present it here as it was originally designed. At the time of release, I re-formatted the Eau Sans family with numeric characters in three variations: proportional, lining and old-styled figures. This typeface is used for my electronic sound project: parabola. 
</metadata>
<defs>
<font id="Eau-SansBook" horiz-adv-x="350" >
  <font-face 
    font-family="Eau"
    font-weight="400"
    font-stretch="normal"
    units-per-em="1350"
    panose-1="0 0 0 0 0 0 0 0 0 0"
    ascent="1050"
    descent="-300"
    x-height="720"
    cap-height="1000"
    bbox="-85 -300 1500 1275"
    underline-thickness="40"
    underline-position="-266"
    stemh="27"
    stemv="115"
    unicode-range="U+0020-FB02"
  />
<missing-glyph horiz-adv-x="675" 
d="M169 84h337v882h-337v-882zM84 0v1050h507v-1050h-507z" />
    <glyph glyph-name=".notdef" horiz-adv-x="675" 
d="M169 84h337v882h-337v-882zM84 0v1050h507v-1050h-507z" />
    <glyph glyph-name="space" unicode=" " 
 />
    <glyph glyph-name="exclam" unicode="!" horiz-adv-x="380" 
d="M255 130v-130h-130v130h130zM120 1000h140l-25 -750h-90z" />
    <glyph glyph-name="quotedbl" unicode="&#x22;" horiz-adv-x="570" 
d="M135 1000h135l-86 -259h-86zM355 1000h135l-86 -259h-86z" />
    <glyph glyph-name="numbersign" unicode="#" horiz-adv-x="770" 
d="M447 478l49 242h-172l-50 -242h173zM740 805v-85h-159l-50 -242h144v-85h-160l-40 -193h-85l39 193h-173l-38 -193h-86l40 193h-142v85h158l51 242h-145v85h161l40 195h85l-40 -195h173l40 195h84l-38 -195h141z" />
    <glyph glyph-name="dollar" unicode="$" horiz-adv-x="670" 
d="M512 297c0 75 -59 129 -137 152v-317c91 18 137 91 137 165zM284 593l21 -7v281c-92 -19 -127 -86 -127 -142c0 -65 32 -107 106 -132zM627 297c0 -133 -90 -245 -252 -263v-134h-70v133c-122 7 -211 62 -260 111l69 70c42 -42 113 -78 191 -85v344l-57 19
c-107 36 -185 103 -185 233c0 102 69 219 242 240v135h70v-132c102 -4 189 -50 250 -112l-70 -70c-46 46 -104 81 -180 86v-309l32 -11c114 -39 220 -103 220 -255z" />
    <glyph glyph-name="percent" unicode="%" horiz-adv-x="1175" 
d="M436 725c0 122 -62 205 -147 205s-147 -83 -147 -205s62 -205 147 -205s147 83 147 205zM1033 275c0 122 -62 205 -147 205s-147 -83 -147 -205s62 -205 147 -205s147 83 147 205zM528 725c0 -174 -105 -285 -239 -285s-239 111 -239 285s105 285 239 285
s239 -111 239 -285zM870 1050h85l-650 -1100h-85zM1125 275c0 -174 -105 -285 -239 -285s-239 111 -239 285s105 285 239 285s239 -111 239 -285z" />
    <glyph glyph-name="ampersand" unicode="&#x26;" horiz-adv-x="920" 
d="M645 186l-303 303c-106 -60 -152 -123 -152 -229c0 -105 92 -180 208 -180c94 0 179 30 247 106zM510 800c0 60 -50 125 -130 125s-130 -65 -130 -125c0 -75 38 -115 121 -197c102 61 139 117 139 197zM778 202l202 -202h-149l-112 112c-94 -93 -197 -127 -319 -127
c-200 0 -325 112 -325 274c0 129 72 219 199 292c-100 99 -134 156 -134 249c0 98 80 215 240 215s235 -117 235 -215c0 -121 -70 -189 -177 -260l258 -257c27 65 44 134 44 267h110c0 -158 -25 -257 -72 -348z" />
    <glyph glyph-name="quoteright" unicode="&#x2019;" 
d="M130 1000h135l-86 -259h-86z" />
    <glyph glyph-name="parenleft" unicode="(" horiz-adv-x="450" 
d="M360 -5l-90 -45c-90 150 -170 330 -170 550s80 400 170 550l90 -45c-85 -145 -155 -295 -155 -505s70 -370 155 -505z" />
    <glyph glyph-name="parenright" unicode=")" horiz-adv-x="450" 
d="M350 500c0 -220 -80 -400 -170 -550l-90 45c85 145 155 295 155 505s-70 370 -155 505l90 45c90 -150 170 -330 170 -550z" />
    <glyph glyph-name="asterisk" unicode="*" horiz-adv-x="554" 
d="M483 876l21 -66l-171 -56l106 -145l-56 -41l-106 145l-106 -145l-56 41l106 145l-171 56l21 66l171 -56v180h70v-180z" />
    <glyph glyph-name="plus" unicode="+" horiz-adv-x="750" 
d="M690 535v-90h-270v-270h-90v270h-270v90h270v270h90v-270h270z" />
    <glyph glyph-name="comma" unicode="," 
d="M120 130h135l-86 -259h-86z" />
    <glyph glyph-name="hyphen" unicode="-" horiz-adv-x="445" 
d="M385 420v-90h-325v90h325z" />
    <glyph glyph-name="period" unicode="." 
d="M240 130v-130h-130v130h130z" />
    <glyph glyph-name="slash" unicode="/" horiz-adv-x="400" 
d="M300 1050h75l-275 -1100h-75z" />
    <glyph glyph-name="zero" unicode="0" horiz-adv-x="880" 
d="M680 500c0 250 -90 410 -240 410s-240 -160 -240 -410s90 -410 240 -410s240 160 240 410zM805 500c0 -305 -142 -515 -365 -515s-365 210 -365 515s142 515 365 515s365 -210 365 -515z" />
    <glyph glyph-name="one" unicode="1" horiz-adv-x="520" 
d="M375 1000v-1000h-115v868c-35 -35 -125 -78 -215 -90v100c85 12 190 77 235 122h95z" />
    <glyph glyph-name="two" unicode="2" horiz-adv-x="750" 
d="M686 105v-105h-611v95c353 352 455 486 455 635c0 93 -62 180 -175 180c-93 0 -147 -39 -200 -92l-77 77c63 63 145 120 277 120c185 0 300 -127 300 -285c0 -166 -132 -333 -425 -625h456z" />
    <glyph glyph-name="three" unicode="3" horiz-adv-x="770" 
d="M695 280c0 -155 -135 -295 -345 -295c-126 0 -225 50 -280 120l77 77c54 -54 110 -92 203 -92c140 0 220 92 220 190s-80 190 -220 190h-105v104h105c125 0 200 75 200 168s-75 168 -200 168c-92 0 -147 -39 -200 -92l-77 77c63 63 149 120 277 120
c197 0 325 -115 325 -273c0 -127 -105 -202 -170 -220c105 -27 190 -141 190 -242z" />
    <glyph glyph-name="four" unicode="4" horiz-adv-x="840" 
d="M200 355h331v475zM790 355v-105h-149v-250h-110v250h-461v100l461 650h110v-645h149z" />
    <glyph glyph-name="five" unicode="5" horiz-adv-x="770" 
d="M706 310c0 -180 -135 -325 -345 -325c-126 0 -225 50 -280 120l77 77c54 -54 110 -92 203 -92c140 0 220 110 220 220s-80 220 -220 220c-71 0 -120 -25 -154 -52l-102 51v471h551v-105h-436v-294c41 21 81 34 141 34c210 0 345 -155 345 -325z" />
    <glyph glyph-name="six" unicode="6" horiz-adv-x="880" 
d="M675 310c0 110 -79 220 -221 220c-140 0 -219 -110 -219 -220s79 -220 220 -220c140 0 220 110 220 220zM800 310c0 -180 -134 -325 -345 -325c-252 1 -365 220 -365 515c0 305 134 515 395 515c126 0 230 -65 285 -120l-77 -77c-47 47 -112 92 -208 92
c-187 0 -275 -160 -275 -410c25 50 115 135 245 135c210 0 345 -155 345 -325z" />
    <glyph glyph-name="seven" unicode="7" horiz-adv-x="750" 
d="M690 1000v-95c-185 -245 -305 -515 -395 -905h-130c100 390 210 660 385 895h-506v105h646z" />
    <glyph glyph-name="eight" unicode="8" horiz-adv-x="840" 
d="M640 280c0 98 -80 190 -220 190c-141 0 -220 -92 -220 -190s80 -190 220 -190s220 92 220 190zM620 742c0 93 -75 168 -200 168s-200 -75 -200 -168s75 -168 200 -168s200 75 200 168zM765 280c0 -155 -135 -295 -345 -295s-345 140 -345 295c0 100 85 215 186 241
c-61 19 -166 94 -166 221c0 158 128 273 325 273s325 -115 325 -273c0 -127 -105 -202 -168 -220c103 -27 188 -142 188 -242z" />
    <glyph glyph-name="nine" unicode="9" horiz-adv-x="880" 
d="M645 690c0 110 -79 220 -220 220c-140 0 -220 -110 -220 -220s79 -220 221 -220c140 0 219 110 219 220zM790 500c0 -305 -134 -515 -395 -515c-126 0 -230 65 -285 120l77 77c47 -47 112 -92 208 -92c187 0 275 160 275 410c-25 -50 -115 -135 -245 -135
c-210 0 -345 155 -345 325c0 180 137 324 345 325c252 1 365 -220 365 -515z" />
    <glyph glyph-name="colon" unicode=":" 
d="M240 130v-130h-130v130h130zM240 720v-130h-130v130h130z" />
    <glyph glyph-name="semicolon" unicode=";" 
d="M120 130h135l-86 -259h-86zM240 720v-130h-130v130h130z" />
    <glyph glyph-name="less" unicode="&#x3c;" horiz-adv-x="390" 
d="M196 400l140 -280h-116l-140 280l140 280h116z" />
    <glyph glyph-name="equal" unicode="=" horiz-adv-x="750" 
d="M690 410v-90h-630v90h630zM690 660v-90h-630v90h630z" />
    <glyph glyph-name="greater" unicode="&#x3e;" horiz-adv-x="390" 
d="M170 680l140 -280l-140 -280h-116l140 280l-140 280h116z" />
    <glyph glyph-name="question" unicode="?" horiz-adv-x="685" 
d="M360 130v-130h-130v130h130zM615 745c0 -107 -45 -165 -110 -230l-73 -73c-65 -65 -82 -100 -82 -192h-110c0 127 45 192 92 239l73 73c52 52 85 94 85 183c0 82 -72 165 -175 165c-101 0 -155 -48 -198 -92l-77 77c68 67 148 120 275 120c176 0 300 -124 300 -270z" />
    <glyph glyph-name="at" unicode="@" horiz-adv-x="1140" 
d="M729 495c21 116 -40 204 -136 204c-100 0 -187 -88 -208 -204c-20 -116 40 -204 136 -204s188 88 208 204zM1091 510c-15 -167 -142 -297 -278 -297c-68 0 -106 45 -106 119c-31 -78 -140 -121 -212 -121c-132 0 -231 116 -202 284c30 168 170 284 302 284
c72 0 149 -40 166 -104l16 92h88l-73 -412c-7 -38 1 -72 47 -72c84 0 158 105 169 237c21 247 -137 425 -396 425s-448 -223 -467 -445c-22 -255 138 -445 393 -445c119 0 224 48 309 126l52 -57c-102 -89 -233 -144 -373 -144c-301 0 -494 236 -474 535
c17 258 241 505 552 505s514 -215 487 -510z" />
    <glyph glyph-name="A" unicode="A" horiz-adv-x="880" 
d="M263 360h354l-177 496zM505 1000l370 -1000h-130l-91 255h-428l-91 -255h-130l370 1000h130z" />
    <glyph glyph-name="B" unicode="B" horiz-adv-x="850" 
d="M665 290c0 99 -75 165 -215 165h-200v-350h200c145 0 215 66 215 185zM635 735c0 94 -40 160 -172 160h-213v-335h180c120 0 205 65 205 175zM790 285c0 -175 -110 -285 -340 -285h-320v1000h335c200 0 295 -110 295 -246c0 -124 -86 -225 -220 -244
c148 -4 250 -100 250 -225z" />
    <glyph glyph-name="C" unicode="C" horiz-adv-x="870" 
d="M757 182l77 -77c-74 -74 -177 -120 -304 -120c-280 0 -465 215 -465 515s185 515 465 515c127 0 230 -46 304 -120l-77 -77c-64 64 -129 92 -227 92c-196 0 -340 -160 -340 -410s144 -410 340 -410c98 0 163 28 227 92z" />
    <glyph glyph-name="D" unicode="D" horiz-adv-x="970" 
d="M780 500c0 270 -175 395 -385 395h-145v-790h145c210 0 385 125 385 395zM905 500c0 -335 -240 -500 -510 -500h-265v1000h265c280 0 510 -165 510 -500z" />
    <glyph glyph-name="E" unicode="E" horiz-adv-x="730" 
d="M650 105v-105h-520v1000h510v-105h-390v-335h380v-105h-380v-350h400z" />
    <glyph glyph-name="F" unicode="F" horiz-adv-x="700" 
d="M650 1000v-105h-400v-335h390v-105h-390v-455h-120v1000h520z" />
    <glyph glyph-name="G" unicode="G" horiz-adv-x="940" 
d="M859 525v-460c-79 -44 -194 -80 -319 -80c-293 0 -475 215 -475 515s182 515 475 515c139 0 244 -50 314 -120l-77 -77c-56 56 -127 92 -237 92c-207 0 -350 -160 -350 -410s143 -410 350 -410c75 0 150 18 199 43v287h-234v105h354z" />
    <glyph glyph-name="H" unicode="H" horiz-adv-x="960" 
d="M830 1000v-1000h-120v455h-460v-455h-120v1000h120v-440h460v440h120z" />
    <glyph glyph-name="I" unicode="I" horiz-adv-x="380" 
d="M250 1000v-1000h-120v1000h120z" />
    <glyph glyph-name="J" unicode="J" horiz-adv-x="640" 
d="M510 1000v-750c0 -175 -125 -270 -268 -270c-101 0 -183 52 -237 126l76 76c38 -55 98 -92 161 -92c88 0 148 60 148 160v750h120z" />
    <glyph glyph-name="K" unicode="K" horiz-adv-x="815" 
d="M370 510l440 -510h-153l-407 490v-490h-120v1000h120v-470l395 470h150z" />
    <glyph glyph-name="L" unicode="L" horiz-adv-x="650" 
d="M650 105v-105h-520v1000h120v-895h400z" />
    <glyph glyph-name="M" unicode="M" horiz-adv-x="1210" 
d="M1080 1000v-1000h-120v858l-286 -858h-138l-286 858v-858h-120v1000h189l286 -858l286 858h189z" />
    <glyph glyph-name="N" unicode="N" horiz-adv-x="970" 
d="M840 1000v-1001h-170l-420 841v-840h-120v1000h170l420 -840v840h120z" />
    <glyph glyph-name="O" unicode="O" horiz-adv-x="1020" 
d="M830 500c0 250 -145 410 -320 410s-320 -160 -320 -410s145 -410 320 -410s320 160 320 410zM955 500c0 -300 -185 -515 -445 -515s-445 215 -445 515s185 515 445 515s445 -215 445 -515z" />
    <glyph glyph-name="P" unicode="P" horiz-adv-x="800" 
d="M635 717c0 100 -65 178 -195 178h-190v-355h190c130 0 195 77 195 177zM760 718c0 -168 -120 -283 -320 -283h-190v-435h-120v1000h310c200 0 320 -122 320 -282z" />
    <glyph glyph-name="Q" unicode="Q" horiz-adv-x="1020" 
d="M830 500c0 250 -145 410 -320 410s-320 -160 -320 -410s145 -410 320 -410s320 160 320 410zM826 128l174 -87l-80 -81l-181 91c-65 -42 -143 -66 -229 -66c-260 0 -445 215 -445 515s185 515 445 515s445 -215 445 -515c0 -152 -48 -282 -129 -372z" />
    <glyph glyph-name="R" unicode="R" horiz-adv-x="850" 
d="M635 735c0 94 -40 160 -172 160h-213v-335h180c120 0 205 65 205 175zM727 363l73 -363h-128l-68 343c-13 67 -58 112 -133 112h-221v-455h-120v1000h335c200 0 295 -110 295 -246c0 -116 -73 -212 -177 -242c83 -9 128 -70 144 -149z" />
    <glyph glyph-name="S" unicode="S" horiz-adv-x="745" 
d="M695 275c0 -175 -128 -295 -330 -295c-147 0 -255 65 -315 125l77 77c58 -58 140 -97 238 -97c126 0 205 80 205 190c0 87 -68 140 -159 170l-141 47c-112 37 -200 114 -200 258c0 123 102 270 325 270c125 0 226 -50 300 -124l-77 -78c-52 52 -131 97 -223 97
c-136 0 -200 -85 -200 -165s48 -125 118 -148l142 -47c121 -40 240 -115 240 -280z" />
    <glyph glyph-name="T" unicode="T" horiz-adv-x="750" 
d="M740 1000v-100h-305v-900h-120v900h-305v100h730z" />
    <glyph glyph-name="U" unicode="U" horiz-adv-x="960" 
d="M830 1000v-695c0 -225 -160 -325 -350 -325s-350 100 -350 325v695h120v-695c0 -145 100 -220 230 -220s230 75 230 220v695h120z" />
    <glyph glyph-name="V" unicode="V" horiz-adv-x="850" 
d="M710 1000h130l-345 -1000h-140l-345 1000h130l285 -855z" />
    <glyph glyph-name="W" unicode="W" horiz-adv-x="1258" 
d="M1108 1000h130l-260 -1000h-147l-202 807l-202 -807h-147l-260 1000h130l204 -816l204 816h142l204 -816z" />
    <glyph glyph-name="X" unicode="X" horiz-adv-x="888" 
d="M512 516l351 -516h-145l-274 422l-274 -422h-145l351 516l-331 484h146l253 -391l253 391h146z" />
    <glyph glyph-name="Y" unicode="Y" horiz-adv-x="752" 
d="M657 1000h145l-366 -538v-462h-120v462l-366 538h145l281 -432z" />
    <glyph glyph-name="Z" unicode="Z" horiz-adv-x="700" 
d="M650 105v-105h-600v105l460 790h-450v105h580v-105l-460 -790h470z" />
    <glyph glyph-name="bracketleft" unicode="[" horiz-adv-x="420" 
d="M360 45v-95h-240v1100h240v-95h-130v-910h130z" />
    <glyph glyph-name="backslash" unicode="\" horiz-adv-x="400" 
d="M100 1050l275 -1100h-75l-275 1100h75z" />
    <glyph glyph-name="bracketright" unicode="]" horiz-adv-x="420" 
d="M300 1050v-1100h-240v95h130v910h-130v95h240z" />
    <glyph glyph-name="asciicircum" unicode="^" horiz-adv-x="450" 
d="M285 1020l130 -230h-106l-84 144l-84 -144h-106l130 230h120z" />
    <glyph glyph-name="underscore" unicode="_" horiz-adv-x="490" 
d="M490 80v-80h-490v80h490z" />
    <glyph glyph-name="quoteleft" unicode="&#x2018;" 
d="M171 1000h86l-37 -259h-135z" />
    <glyph glyph-name="a" unicode="a" horiz-adv-x="760" 
d="M530 285v45h-140c-140 0 -195 -73 -195 -135c0 -65 49 -110 135 -110c140 0 200 137 200 200zM640 500v-500h-110v120c-28 -78 -112 -135 -225 -135c-125 0 -225 93 -225 210c0 112 84 230 325 230h125v75c0 73 -65 140 -165 140c-86 0 -140 -29 -180 -69l-70 70
c55 55 134 99 250 99c170 0 275 -103 275 -240z" />
    <glyph glyph-name="b" unicode="b" horiz-adv-x="835" 
d="M660 360c0 165 -90 275 -215 275c-120 0 -215 -110 -215 -275s95 -275 215 -275s215 110 215 275zM775 360c0 -230 -150 -375 -315 -375c-90 0 -195 50 -230 125v-110h-110v1000h110v-395c35 80 140 130 230 130c165 0 315 -145 315 -375z" />
    <glyph glyph-name="c" unicode="c" horiz-adv-x="660" 
d="M550 149l70 -70c-59 -59 -144 -94 -220 -94c-190 0 -340 155 -340 375s150 375 340 375c76 0 161 -35 220 -94l-70 -70c-40 40 -94 64 -150 64c-130 0 -225 -115 -225 -275s95 -275 225 -275c56 0 110 24 150 64z" />
    <glyph glyph-name="d" unicode="d" horiz-adv-x="835" 
d="M605 360c0 165 -95 275 -215 275c-125 0 -215 -110 -215 -275s95 -275 215 -275s215 110 215 275zM715 1000v-1000h-110v110c-35 -75 -140 -125 -230 -125c-165 0 -315 145 -315 375s150 375 315 375c90 0 195 -50 230 -130v395h110z" />
    <glyph glyph-name="e" unicode="e" horiz-adv-x="740" 
d="M180 425h381c-19 143 -99 210 -186 210c-98 0 -176 -80 -195 -210zM680 360v-35h-504c12 -147 102 -240 234 -240c58 0 121 20 165 64l70 -70c-64 -64 -141 -94 -235 -94c-202 0 -350 151 -350 375c0 220 140 375 315 375c176 0 305 -143 305 -375z" />
    <glyph glyph-name="f" unicode="f" horiz-adv-x="500" 
d="M450 1000v-95c-20 6 -40 10 -61 10c-79 0 -109 -35 -109 -95v-100h165v-95h-165v-625h-110v625h-140v95h140v120c0 85 65 170 190 170c30 0 72 -5 90 -10z" />
    <glyph glyph-name="g" unicode="g" horiz-adv-x="835" 
d="M605 370c0 150 -95 265 -215 265s-215 -115 -215 -265c0 -155 90 -265 215 -265c120 0 215 110 215 265zM715 720v-670c0 -175 -125 -315 -345 -315c-130 0 -215 49 -270 104l70 70c35 -35 100 -74 200 -74c130 0 235 85 235 215v90c-35 -75 -120 -135 -230 -135
c-165 0 -315 145 -315 365s150 365 315 365c110 0 195 -60 230 -130v115h110z" />
    <glyph glyph-name="h" unicode="h" horiz-adv-x="840" 
d="M720 460v-460h-110v460c0 115 -65 175 -165 175c-125 0 -215 -95 -215 -275v-360h-110v1000h110v-400c28 78 112 135 230 135c160 0 260 -105 260 -275z" />
    <glyph glyph-name="i" unicode="i" 
d="M230 720v-720h-110v720h110zM235 1000v-120h-120v120h120z" />
    <glyph glyph-name="j" unicode="j" horiz-adv-x="360" 
d="M240 720v-810c0 -85 -65 -170 -190 -170c-30 0 -72 5 -90 10v95c20 -6 40 -10 61 -10c79 0 109 35 109 95v790h110zM245 1000v-120h-120v120h120z" />
    <glyph glyph-name="k" unicode="k" horiz-adv-x="720" 
d="M350 370l384 -370h-159l-345 345v-345h-110v1000h110v-610l330 330h150z" />
    <glyph glyph-name="l" unicode="l" 
d="M230 1000v-1000h-110v1000h110z" />
    <glyph glyph-name="m" unicode="m" horiz-adv-x="1220" 
d="M1100 460v-460h-110v460c0 115 -44 175 -140 175c-91 0 -185 -96 -185 -275v-360h-110v460c0 115 -44 175 -140 175c-91 0 -185 -96 -185 -275v-360h-110v720h110v-120c36 82 102 135 205 135c135 0 193 -91 212 -151c46 96 122 151 223 151c146 0 230 -105 230 -275z
" />
    <glyph glyph-name="n" unicode="n" horiz-adv-x="840" 
d="M720 460v-460h-110v460c0 115 -65 175 -165 175c-125 0 -215 -95 -215 -275v-360h-110v720h110v-120c28 78 112 135 230 135c160 0 260 -105 260 -275z" />
    <glyph glyph-name="o" unicode="o" horiz-adv-x="780" 
d="M605 360c0 165 -90 275 -215 275c-120 0 -215 -110 -215 -275s95 -275 215 -275s215 110 215 275zM720 360c0 -230 -150 -375 -330 -375s-330 145 -330 375s150 375 330 375s330 -145 330 -375z" />
    <glyph glyph-name="p" unicode="p" horiz-adv-x="835" 
d="M660 360c0 165 -90 275 -215 275c-120 0 -215 -110 -215 -275s95 -275 215 -275s215 110 215 275zM775 360c0 -230 -150 -375 -315 -375c-90 0 -195 50 -230 125v-360h-110v970h110v-115c35 80 140 130 230 130c165 0 315 -145 315 -375z" />
    <glyph glyph-name="q" unicode="q" horiz-adv-x="835" 
d="M605 360c0 165 -95 275 -215 275c-125 0 -215 -110 -215 -275s95 -275 215 -275s215 110 215 275zM715 720v-970h-110v360c-35 -75 -140 -125 -230 -125c-165 0 -315 145 -315 375s150 375 315 375c90 0 195 -50 230 -130v115h110z" />
    <glyph glyph-name="r" unicode="r" horiz-adv-x="500" 
d="M470 735v-105c-159 0 -240 -90 -240 -270v-360h-110v720h110v-110c45 90 119 125 240 125z" />
    <glyph glyph-name="s" unicode="s" horiz-adv-x="605" 
d="M555 189c0 -110 -85 -209 -260 -209c-104 0 -196 50 -245 99l70 70c32 -32 97 -69 175 -69c91 0 145 45 145 109c0 50 -32 86 -108 111l-108 36c-115 38 -164 104 -164 199c0 103 83 205 250 205c104 0 180 -44 235 -99l-70 -70c-35 35 -84 69 -165 69
c-90 0 -135 -55 -135 -105c0 -49 32 -77 100 -100l108 -36c122 -41 172 -116 172 -210z" />
    <glyph glyph-name="t" unicode="t" horiz-adv-x="500" 
d="M450 95v-95c-18 -5 -60 -10 -90 -10c-125 0 -190 85 -190 170v465h-140v95h140v205h110v-205h165v-95h-165v-445c0 -60 30 -95 109 -95c21 0 41 4 61 10z" />
    <glyph glyph-name="u" unicode="u" horiz-adv-x="840" 
d="M720 720v-720h-110v120c-28 -78 -112 -135 -230 -135c-160 0 -260 105 -260 275v460h110v-460c0 -115 65 -175 165 -175c125 0 215 95 215 275v360h110z" />
    <glyph glyph-name="v" unicode="v" horiz-adv-x="730" 
d="M595 720h125l-295 -720h-130l-285 720h125l225 -605z" />
    <glyph glyph-name="w" unicode="w" horiz-adv-x="1066" 
d="M913 720h123l-212 -720h-140l-151 544l-151 -544h-140l-212 720h123l159 -591l164 591h114l164 -591z" />
    <glyph glyph-name="x" unicode="x" horiz-adv-x="720" 
d="M425 370l255 -370h-132l-188 282l-188 -282h-132l255 370l-243 350h136l171 -260l173 260h136z" />
    <glyph glyph-name="y" unicode="y" horiz-adv-x="730" 
d="M595 720h125l-358 -871c-11 -28 -53 -109 -178 -109c-30 0 -72 5 -90 10v95c20 -6 40 -10 61 -10c79 0 94 33 104 58l40 97l-289 730h125l225 -605z" />
    <glyph glyph-name="z" unicode="z" horiz-adv-x="610" 
d="M550 100v-100h-490v95l350 530h-340v95h470v-95l-350 -525h360z" />
    <glyph glyph-name="braceleft" unicode="{" horiz-adv-x="480" 
d="M438 30v-90h-83c-88 0 -160 72 -160 160v240c0 61 -49 110 -110 110h-30v100h30c60 0 110 50 110 110v240c0 88 72 160 160 160h83v-90h-68c-36 0 -65 -29 -65 -65v-245c0 -83 -65 -150 -140 -160c75 -10 140 -77 140 -160v-245c0 -36 29 -65 65 -65h68z" />
    <glyph glyph-name="bar" unicode="|" horiz-adv-x="430" 
d="M255 1000v-1250h-80v1250h80z" />
    <glyph glyph-name="braceright" unicode="}" horiz-adv-x="480" 
d="M425 550v-100h-30c-61 0 -110 -49 -110 -110v-240c0 -88 -72 -160 -160 -160h-83v90h68c36 0 65 29 65 65v245c0 83 65 150 140 160c-75 10 -140 77 -140 160v245c0 36 -29 65 -65 65h-68v90h83c88 0 160 -72 160 -160v-240c0 -60 50 -110 110 -110h30z" />
    <glyph glyph-name="asciitilde" unicode="~" horiz-adv-x="573" 
d="M482 510l56 -56l-60 -60c-27 -27 -64 -44 -106 -44s-80 18 -106 44l-16 16c-14 14 -29 20 -49 20c-19 0 -39 -9 -50 -20l-60 -60l-56 56l60 60c27 27 64 44 106 44c44 0 74 -12 106 -44l16 -16c14 -14 29 -20 49 -20c19 0 39 9 50 20z" />
    <glyph glyph-name="exclamdown" unicode="&#xa1;" horiz-adv-x="380" 
d="M235 750l25 -750h-140l25 750h90zM255 1000v-130h-130v130h130z" />
    <glyph glyph-name="cent" unicode="&#xa2;" horiz-adv-x="660" 
d="M345 232v536c-101 -28 -170 -132 -170 -268s69 -240 170 -268zM550 289l70 -70c-58 -58 -140 -92 -215 -94v-125h-60v129c-163 27 -285 173 -285 371s122 344 285 370v130h60v-125c75 -2 157 -36 215 -94l-70 -70c-39 39 -91 63 -145 64v-550c54 1 106 25 145 64z" />
    <glyph glyph-name="sterling" unicode="&#xa3;" horiz-adv-x="735" 
d="M712 895l-77 -77c-46 46 -99 92 -190 92c-98 0 -165 -87 -165 -180v-230h170v-65h-170v-330h427v-105h-657v105h115v330h-115v65h115v230c0 159 106 285 280 285c140 0 210 -63 267 -120z" />
    <glyph glyph-name="yen" unicode="&#xa5;" horiz-adv-x="812" 
d="M687 1000h145l-323 -473h203v-65h-246v-90h246v-65h-246v-307h-120v307h-246v65h246v90h-246v65h203l-323 473h145l281 -432z" />
    <glyph glyph-name="florin" unicode="&#x192;" horiz-adv-x="700" 
d="M703 1000l-21 -95c-18 6 -38 10 -59 10c-79 0 -116 -35 -129 -95l-44 -210h157v-75h-173l-133 -625c-18 -85 -101 -170 -226 -170c-30 0 -71 5 -88 10l20 95c19 -6 38 -10 59 -10c79 0 116 35 129 95l129 605h-132v75h148l49 230c18 85 101 170 226 170
c30 0 71 -5 88 -10z" />
    <glyph glyph-name="section" unicode="&#xa7;" horiz-adv-x="625" 
d="M450 464c0 50 -32 86 -108 111l-121 40c-30 -19 -46 -49 -46 -84c0 -50 32 -86 108 -111l121 -40c30 19 46 49 46 84zM565 464c0 -54 -20 -105 -62 -144c36 -35 52 -80 52 -135c0 -103 -83 -205 -250 -205c-104 0 -180 44 -235 99l70 70c35 -35 84 -69 165 -69
c90 0 135 55 135 105c0 49 -32 77 -100 100l-108 36c-122 41 -172 116 -172 210c0 54 20 105 62 144c-36 35 -52 80 -52 135c0 103 83 205 250 205c104 0 180 -44 235 -99l-70 -70c-35 35 -84 69 -165 69c-90 0 -135 -55 -135 -105c0 -49 32 -77 100 -100l108 -36
c122 -41 172 -116 172 -210z" />
    <glyph glyph-name="quotesingle" unicode="'" 
d="M130 1000h135l-86 -259h-86z" />
    <glyph glyph-name="quotedblleft" unicode="&#x201c;" horiz-adv-x="570" 
d="M171 1000h86l-37 -259h-135zM391 1000h86l-37 -259h-135z" />
    <glyph glyph-name="guillemotleft" unicode="&#xab;" horiz-adv-x="600" 
d="M196 400l140 -280h-116l-140 280l140 280h116zM406 400l140 -280h-116l-140 280l140 280h116z" />
    <glyph glyph-name="guilsinglleft" unicode="&#x2039;" horiz-adv-x="390" 
d="M196 400l140 -280h-116l-140 280l140 280h116z" />
    <glyph glyph-name="guilsinglright" unicode="&#x203a;" horiz-adv-x="390" 
d="M170 680l140 -280l-140 -280h-116l140 280l-140 280h116z" />
    <glyph glyph-name="fi" unicode="&#xfb01;" horiz-adv-x="850" 
d="M450 1000v-95c-20 6 -40 10 -61 10c-79 0 -109 -35 -109 -95v-100h165v-95h-165v-625h-110v625h-140v95h140v120c0 85 65 170 190 170c30 0 72 -5 90 -10zM730 720v-720h-110v720h110zM735 1000v-120h-120v120h120z" />
    <glyph glyph-name="fl" unicode="&#xfb02;" horiz-adv-x="850" 
d="M450 1000v-95c-20 6 -40 10 -61 10c-79 0 -109 -35 -109 -95v-100h165v-95h-165v-625h-110v625h-140v95h140v120c0 85 65 170 190 170c30 0 72 -5 90 -10zM730 1000v-1000h-110v1000h110z" />
    <glyph glyph-name="endash" unicode="&#x2013;" horiz-adv-x="840" 
d="M780 420v-90h-720v90h720z" />
    <glyph glyph-name="dagger" unicode="&#x2020;" horiz-adv-x="570" 
d="M540 720v-95h-200v-875h-110v875h-200v95h200v280h110v-280h200z" />
    <glyph glyph-name="daggerdbl" unicode="&#x2021;" horiz-adv-x="570" 
d="M540 95v-95h-200v-250h-110v250h-200v95h200v530h-200v95h200v280h110v-280h200v-95h-200v-530h200z" />
    <glyph glyph-name="periodcentered" unicode="&#xb7;" 
d="M240 465v-130h-130v130h130z" />
    <glyph glyph-name="paragraph" unicode="&#xb6;" horiz-adv-x="740" 
d="M620 1000v-1250h-105v1155h-95v-1155h-105v700c-151 0 -275 124 -275 275s124 275 275 275h305z" />
    <glyph glyph-name="bullet" unicode="&#x2022;" horiz-adv-x="410" 
d="M310 400c0 -58 -47 -105 -105 -105s-105 47 -105 105s47 105 105 105s105 -47 105 -105z" />
    <glyph glyph-name="quotesinglbase" unicode="&#x201a;" 
d="M120 130h135l-86 -259h-86z" />
    <glyph glyph-name="quotedblbase" unicode="&#x201e;" horiz-adv-x="570" 
d="M120 130h135l-86 -259h-86zM340 130h135l-86 -259h-86z" />
    <glyph glyph-name="quotedblright" unicode="&#x201d;" horiz-adv-x="570" 
d="M130 1000h135l-86 -259h-86zM350 1000h135l-86 -259h-86z" />
    <glyph glyph-name="guillemotright" unicode="&#xbb;" horiz-adv-x="600" 
d="M170 680l140 -280l-140 -280h-116l140 280l-140 280h116zM380 680l140 -280l-140 -280h-116l140 280l-140 280h116z" />
    <glyph glyph-name="ellipsis" unicode="&#x2026;" horiz-adv-x="740" 
d="M240 130v-130h-130v130h130zM435 130v-130h-130v130h130zM630 130v-130h-130v130h130z" />
    <glyph glyph-name="perthousand" unicode="&#x2030;" horiz-adv-x="1550" 
d="M388 725c0 122 -43 205 -123 205s-123 -83 -123 -205s43 -205 123 -205s123 83 123 205zM918 275c0 122 -43 205 -123 205s-123 -83 -123 -205s43 -205 123 -205s123 83 123 205zM1408 275c0 122 -43 205 -123 205s-123 -83 -123 -205s43 -205 123 -205s123 83 123 205z
M480 725c0 -174 -85 -285 -215 -285s-215 111 -215 285s85 285 215 285s215 -111 215 -285zM800 1050h85l-625 -1100h-85zM1010 275c0 -174 -85 -285 -215 -285s-215 111 -215 285s85 285 215 285s215 -111 215 -285zM1500 275c0 -174 -85 -285 -215 -285s-215 111 -215 285
s85 285 215 285s215 -111 215 -285z" />
    <glyph glyph-name="questiondown" unicode="&#xbf;" horiz-adv-x="685" 
d="M568 182l77 -77c-68 -67 -148 -120 -275 -120c-176 0 -300 124 -300 270c0 107 45 165 110 230l73 73c65 65 82 100 82 192h110c0 -127 -45 -192 -92 -239l-73 -73c-52 -52 -85 -94 -85 -183c0 -82 72 -165 175 -165c101 0 155 48 198 92zM455 1000v-130h-130v130h130z
" />
    <glyph glyph-name="grave" unicode="`" horiz-adv-x="450" 
d="M235 1020l115 -230h-86l-164 230h135z" />
    <glyph glyph-name="acute" unicode="&#xb4;" horiz-adv-x="450" 
d="M215 1020h135l-164 -230h-86z" />
    <glyph glyph-name="circumflex" unicode="&#x2c6;" horiz-adv-x="450" 
d="M285 1020l130 -230h-106l-84 144l-84 -144h-106l130 230h120z" />
    <glyph glyph-name="tilde" unicode="&#x2dc;" horiz-adv-x="571" 
d="M441 988h80c0 -83 -67 -150 -150 -150c-42 0 -80 18 -106 44l-16 16c-14 14 -29 20 -49 20c-39 0 -70 -32 -70 -70h-80c0 83 67 150 150 150c44 0 74 -12 106 -44l16 -16c14 -14 29 -20 49 -20c38 0 70 32 70 70z" />
    <glyph glyph-name="macron" unicode="&#xaf;" horiz-adv-x="450" 
d="M375 975v-85h-300v85h300z" />
    <glyph glyph-name="breve" unicode="&#x2d8;" horiz-adv-x="450" 
d="M325 1000h70c0 -94 -76 -170 -170 -170s-170 76 -170 170h70c0 -55 45 -100 100 -100s100 45 100 100z" />
    <glyph glyph-name="dotaccent" unicode="&#x2d9;" horiz-adv-x="440" 
d="M313 910c0 -51 -42 -92 -93 -92s-93 41 -93 92s42 93 93 93s93 -42 93 -93z" />
    <glyph glyph-name="dieresis" unicode="&#xa8;" horiz-adv-x="390" 
d="M135 995v-110h-110v110h110zM365 995v-110h-110v110h110z" />
    <glyph glyph-name="ring" unicode="&#x2da;" horiz-adv-x="440" 
d="M295 910c0 41 -34 75 -75 75s-75 -34 -75 -75s34 -75 75 -75s75 34 75 75zM330 910c0 -60 -50 -110 -110 -110s-110 50 -110 110s50 110 110 110s110 -50 110 -110z" />
    <glyph glyph-name="cedilla" unicode="&#xb8;" horiz-adv-x="470" 
d="M361 -150c0 -50 -54 -105 -153 -105c-56 0 -89 20 -118 42l40 40c16 -13 41 -27 73 -27c48 0 71 24 71 50c0 30 -32 53 -99 53l48 97h70l-26 -53c47 -6 94 -40 94 -97z" />
    <glyph glyph-name="hungarumlaut" unicode="&#x2dd;" horiz-adv-x="650" 
d="M215 1020h135l-164 -230h-86zM415 1020h135l-164 -230h-86z" />
    <glyph glyph-name="ogonek" unicode="&#x2db;" horiz-adv-x="450" 
d="M314 -173l40 -40c-29 -22 -62 -42 -118 -42c-99 0 -153 55 -153 118s46 122 97 152l75 -15c-56 -37 -85 -86 -85 -137c0 -39 28 -63 71 -63c32 0 57 14 73 27z" />
    <glyph glyph-name="caron" unicode="&#x2c7;" horiz-adv-x="450" 
d="M309 1020h106l-130 -230h-120l-130 230h106l84 -144z" />
    <glyph glyph-name="emdash" unicode="&#x2014;" horiz-adv-x="1220" 
d="M1160 420v-90h-1100v90h1100z" />
    <glyph glyph-name="AE" unicode="&#xc6;" horiz-adv-x="1170" 
d="M259 360h311v535zM1090 105v-105h-520v255h-372l-148 -255h-135l595 1000h570v-105h-390v-335h380v-105h-380v-350h400z" />
    <glyph glyph-name="ordfeminine" unicode="&#xaa;" horiz-adv-x="545" 
d="M379 698v31h-97c-97 0 -136 -51 -136 -94c0 -45 34 -76 94 -76c97 0 139 95 139 139zM455 847v-347h-76v83c-19 -54 -78 -93 -156 -93c-87 0 -156 64 -156 145c0 78 58 160 225 160h87v52c0 51 -45 97 -115 97c-59 0 -97 -20 -125 -47l-48 48c38 38 93 69 173 69
c119 0 191 -72 191 -167z" />
    <glyph glyph-name="Lslash" unicode="&#x141;" horiz-adv-x="650" 
d="M650 105v-105h-520v424l-78 -39l-37 74l115 57v484h120v-424l73 37l37 -74l-110 -55v-379h400z" />
    <glyph glyph-name="Oslash" unicode="&#xd8;" horiz-adv-x="1020" 
d="M275 213l417 630c-52 43 -115 67 -182 67c-175 0 -320 -160 -320 -410c0 -118 32 -216 85 -287zM830 500c0 118 -32 216 -85 287l-418 -630c53 -43 116 -67 183 -67c175 0 320 160 320 410zM955 500c0 -300 -185 -515 -445 -515c-93 0 -177 28 -246 77l-74 -112h-90
l107 161c-89 92 -142 229 -142 389c0 300 185 515 445 515c93 0 177 -28 246 -77l74 112h90l-107 -161c89 -92 142 -229 142 -389z" />
    <glyph glyph-name="OE" unicode="&#x152;" horiz-adv-x="1430" 
d="M830 500c0 250 -145 410 -320 410s-320 -160 -320 -410s145 -410 320 -410s320 160 320 410zM1350 105v-105h-520v145c-74 -103 -186 -160 -320 -160c-260 0 -445 215 -445 515s185 515 445 515c134 0 246 -54 320 -160v145h510v-105h-390v-335h380v-105h-380v-350h400z
" />
    <glyph glyph-name="ordmasculine" unicode="&#xba;" horiz-adv-x="578" 
d="M438 750c0 115 -62 191 -149 191c-84 0 -149 -76 -149 -191s65 -191 149 -191c83 0 149 76 149 191zM518 750c0 -160 -104 -260 -229 -260s-229 100 -229 260s104 260 229 260s229 -100 229 -260z" />
    <glyph glyph-name="ae" unicode="&#xe6;" horiz-adv-x="1205" 
d="M530 285v45h-140c-140 0 -195 -73 -195 -135c0 -65 49 -110 135 -110c140 0 200 137 200 200zM645 425h381c-19 143 -99 210 -186 210c-98 0 -176 -80 -195 -210zM1145 360v-35h-504c12 -147 102 -240 234 -240c58 0 121 20 165 64l70 -70c-64 -64 -141 -94 -235 -94
c-124 0 -229 56 -292 168c-39 -93 -135 -168 -278 -168c-125 0 -225 93 -225 210c0 112 84 230 325 230h125v75c0 73 -65 140 -165 140c-86 0 -140 -29 -180 -69l-70 70c55 55 134 99 250 99c118 0 202 -47 243 -124c56 75 138 119 232 119c176 0 305 -143 305 -375z" />
    <glyph glyph-name="dotlessi" unicode="&#x131;" 
d="M230 720v-720h-110v720h110z" />
    <glyph glyph-name="lslash" unicode="&#x142;" 
d="M310 613l37 -74l-117 -58v-481h-110v426l-81 -41l-37 74l118 59v482h110v-427z" />
    <glyph glyph-name="oslash" unicode="&#xf8;" horiz-adv-x="780" 
d="M232 168l271 431c-32 23 -71 36 -113 36c-120 0 -215 -110 -215 -275c0 -78 21 -144 57 -192zM605 360c0 79 -21 146 -56 193l-271 -431c32 -24 71 -37 112 -37c120 0 215 110 215 275zM720 360c0 -230 -150 -375 -330 -375c-61 0 -119 17 -168 48l-52 -83h-75l77 122
c-69 65 -112 164 -112 288c0 230 150 375 330 375c61 0 119 -17 168 -48l52 83h75l-77 -122c69 -65 112 -164 112 -288z" />
    <glyph glyph-name="oe" unicode="&#x153;" horiz-adv-x="1285" 
d="M605 360c0 165 -90 275 -215 275c-120 0 -215 -110 -215 -275s95 -275 215 -275s215 110 215 275zM725 425h381c-19 143 -99 210 -186 210c-98 0 -176 -80 -195 -210zM1225 360v-35h-504c12 -147 102 -240 234 -240c58 0 121 20 165 64l70 -70c-64 -64 -141 -94 -235 -94
c-126 0 -232 61 -291 163c-57 -103 -158 -163 -274 -163c-180 0 -330 145 -330 375s150 375 330 375c114 0 220 -60 272 -159c50 98 149 159 258 159c176 0 305 -143 305 -375z" />
    <glyph glyph-name="germandbls" unicode="&#xdf;" horiz-adv-x="800" 
d="M720 285c0 -165 -115 -300 -325 -300c-30 0 -72 5 -90 10v95c20 -6 42 -10 70 -10c148 0 220 92 220 200s-70 200 -210 200h-80v95h90c105 0 170 79 170 172s-65 173 -165 173s-170 -80 -170 -173v-747h-110v742c0 163 108 273 280 273s280 -110 280 -268
c0 -130 -100 -201 -145 -220c108 -30 185 -125 185 -242z" />
    <glyph glyph-name="onesuperior" unicode="&#xb9;" horiz-adv-x="440" 
d="M280 1000v-667h-77v579c-23 -23 -83 -52 -143 -60v67c57 8 127 51 157 81h63z" />
    <glyph glyph-name="mu" unicode="&#xb5;" horiz-adv-x="840" 
d="M720 720v-720h-110v120c-28 -78 -112 -135 -230 -135c-69 0 -118 21 -150 55v-290h-110v970h110v-460c0 -115 65 -175 165 -175c125 0 215 95 215 275v360h110z" />
    <glyph glyph-name="trademark" unicode="&#x2122;" horiz-adv-x="558" 
d="M211 1000v-31h-72v-219h-38v219h-76v31h186zM493 1000v-250h-38v205l-67 -205h-42l-66 205v-205h-38v250h59l66 -205l66 205h60z" />
    <glyph glyph-name="Eth" unicode="&#xd0;" horiz-adv-x="970" 
d="M780 500c0 270 -175 395 -385 395h-145v-350h105v-90h-105v-350h145c210 0 385 125 385 395zM905 500c0 -335 -240 -500 -510 -500h-265v455h-105v90h105v455h265c280 0 510 -165 510 -500z" />
    <glyph glyph-name="onehalf" unicode="&#xbd;" horiz-adv-x="1130" 
d="M280 1000v-667h-77v579c-23 -23 -83 -52 -143 -60v67c57 8 127 51 157 81h63zM780 1050h85l-650 -1100h-85zM1083 70v-70h-408v63c236 235 304 324 304 423c0 62 -42 120 -117 120c-62 0 -98 -26 -133 -61l-52 51c42 42 97 80 185 80c123 0 200 -84 200 -190
c0 -110 -88 -222 -283 -416h304z" />
    <glyph glyph-name="plusminus" unicode="&#xb1;" horiz-adv-x="750" 
d="M690 190v-90h-630v90h630zM690 610v-90h-270v-270h-90v270h-270v90h270v270h90v-270h270z" />
    <glyph glyph-name="Thorn" unicode="&#xde;" horiz-adv-x="800" 
d="M635 500c0 100 -65 178 -195 178h-190v-355h190c130 0 195 77 195 177zM130 1000h120v-217h190c200 0 320 -122 320 -282c0 -168 -120 -283 -320 -283h-190v-218h-120v1000z" />
    <glyph glyph-name="onequarter" unicode="&#xbc;" horiz-adv-x="1075" 
d="M619 237h221v317zM280 1000v-667h-77v579c-23 -23 -83 -52 -143 -60v67c57 8 127 51 157 81h63zM780 1050h85l-650 -1100h-85zM1012 237v-70h-99v-167h-73v167h-308v67l308 433h73v-430h99z" />
    <glyph glyph-name="brokenbar" unicode="&#xa6;" horiz-adv-x="430" 
d="M255 425v-475h-80v475h80zM255 1050v-475h-80v475h80z" />
    <glyph glyph-name="degree" unicode="&#xb0;" horiz-adv-x="480" 
d="M350 825c0 61 -49 110 -110 110s-110 -49 -110 -110s49 -110 110 -110s110 49 110 110zM430 825c0 -105 -85 -190 -190 -190s-190 85 -190 190s85 190 190 190s190 -85 190 -190z" />
    <glyph glyph-name="thorn" unicode="&#xfe;" horiz-adv-x="835" 
d="M660 375c0 180 -90 290 -215 290c-120 0 -215 -110 -215 -290s95 -290 215 -290s215 110 215 290zM775 375c0 -245 -150 -390 -315 -390c-90 0 -195 50 -230 125v-360h-110v1250h110v-365c35 80 140 130 230 130c165 0 315 -145 315 -390z" />
    <glyph glyph-name="threequarters" unicode="&#xbe;" horiz-adv-x="1225" 
d="M769 237h221v317zM486 519c0 -103 -90 -196 -230 -196c-84 0 -150 33 -186 80l51 51c36 -36 73 -61 135 -61c94 0 147 61 147 126c0 66 -53 127 -147 127h-70v69h70c84 0 134 50 134 112s-50 112 -134 112c-61 0 -98 -26 -133 -61l-51 51c42 42 99 80 184 80
c132 0 217 -76 217 -182c0 -84 -70 -134 -113 -146c70 -18 126 -94 126 -162zM930 1050h85l-650 -1100h-85zM1162 237v-70h-99v-167h-73v167h-308v67l308 433h73v-430h99z" />
    <glyph glyph-name="twosuperior" unicode="&#xb2;" horiz-adv-x="515" 
d="M458 403v-70h-408v63c236 235 304 324 304 423c0 62 -42 120 -117 120c-62 0 -98 -26 -133 -61l-52 51c42 42 97 80 185 80c123 0 200 -84 200 -190c0 -110 -88 -222 -283 -416h304z" />
    <glyph glyph-name="registered" unicode="&#xae;" horiz-adv-x="1170" 
d="M603 761h-141v-221h119c79 0 135 43 135 115c0 62 -26 106 -113 106zM777 410l48 -240h-84l-45 227c-9 44 -39 74 -88 74h-146v-301h-79v660h221c132 0 195 -72 195 -162c0 -77 -49 -140 -117 -160c55 -6 85 -46 95 -98zM1030 500c0 246 -199 445 -445 445
s-445 -199 -445 -445s199 -445 445 -445s445 199 445 445zM1085 500c0 -276 -224 -500 -500 -500s-500 224 -500 500s224 500 500 500s500 -224 500 -500z" />
    <glyph glyph-name="minus" unicode="&#x2212;" horiz-adv-x="750" 
d="M690 535v-90h-630v90h630z" />
    <glyph glyph-name="eth" unicode="&#xf0;" horiz-adv-x="880" 
d="M645 310c0 110 -79 220 -219 220c-142 0 -221 -110 -221 -220s80 -220 220 -220c141 0 220 110 220 220zM790 500c0 -295 -113 -515 -365 -515c-209 0 -345 145 -345 325c0 170 135 325 345 325c130 0 220 -85 245 -135c0 125 -22 228 -68 299l-82 -82l-63 63l85 85
c-40 29 -89 45 -147 45c-96 0 -161 -45 -208 -92l-77 77c55 55 159 120 285 120c91 0 166 -25 226 -71l69 69l63 -63l-69 -69c70 -91 106 -224 106 -381z" />
    <glyph glyph-name="multiply" unicode="&#xd7;" horiz-adv-x="750" 
d="M439 490l216 -216l-64 -64l-216 216l-216 -216l-64 64l216 216l-216 216l64 64l216 -216l216 216l64 -64z" />
    <glyph glyph-name="threesuperior" unicode="&#xb3;" horiz-adv-x="570" 
d="M486 519c0 -103 -90 -196 -230 -196c-84 0 -150 33 -186 80l51 51c36 -36 73 -61 135 -61c94 0 147 61 147 126c0 66 -53 127 -147 127h-70v69h70c84 0 134 50 134 112s-50 112 -134 112c-61 0 -98 -26 -133 -61l-51 51c42 42 99 80 184 80c132 0 217 -76 217 -182
c0 -84 -70 -134 -113 -146c70 -18 126 -94 126 -162z" />
    <glyph glyph-name="copyright" unicode="&#xa9;" horiz-adv-x="1170" 
d="M740 290l51 -51c-49 -49 -117 -79 -200 -79c-185 0 -307 142 -307 340s122 340 307 340c83 0 151 -30 200 -79l-51 -51c-42 42 -85 61 -149 61c-130 0 -225 -106 -225 -271s95 -271 225 -271c64 0 107 19 149 61zM1030 500c0 246 -199 445 -445 445s-445 -199 -445 -445
s199 -445 445 -445s445 199 445 445zM1085 500c0 -276 -224 -500 -500 -500s-500 224 -500 500s224 500 500 500s500 -224 500 -500z" />
    <glyph glyph-name="Aacute" unicode="&#xc1;" horiz-adv-x="880" 
d="M263 360h354l-177 496zM505 1000l370 -1000h-130l-91 255h-428l-91 -255h-130l370 1000h130zM440 1275h135l-164 -230h-86z" />
    <glyph glyph-name="Acircumflex" unicode="&#xc2;" horiz-adv-x="880" 
d="M263 360h354l-177 496zM505 1000l370 -1000h-130l-91 255h-428l-91 -255h-130l370 1000h130zM500 1275l130 -230h-106l-84 144l-84 -144h-106l130 230h120z" />
    <glyph glyph-name="Adieresis" unicode="&#xc4;" horiz-adv-x="880" 
d="M263 360h354l-177 496zM505 1000l370 -1000h-130l-91 255h-428l-91 -255h-130l370 1000h130zM380 1220v-110h-110v110h110zM610 1220v-110h-110v110h110z" />
    <glyph glyph-name="Agrave" unicode="&#xc0;" horiz-adv-x="880" 
d="M263 360h354l-177 496zM505 1000l370 -1000h-130l-91 255h-428l-91 -255h-130l370 1000h130zM434 1275l115 -230h-86l-164 230h135z" />
    <glyph glyph-name="Aring" unicode="&#xc5;" horiz-adv-x="880" 
d="M263 360h354l-177 496zM515 1150c0 41 -34 75 -75 75s-75 -34 -75 -75s34 -75 75 -75s75 34 75 75zM505 1000l370 -1000h-130l-91 255h-428l-91 -255h-130l370 1000h130zM550 1150c0 -60 -50 -110 -110 -110s-110 50 -110 110s50 110 110 110s110 -50 110 -110z" />
    <glyph glyph-name="Atilde" unicode="&#xc3;" horiz-adv-x="880" 
d="M263 360h354l-177 496zM505 1000l370 -1000h-130l-91 255h-428l-91 -255h-130l370 1000h130zM601 1195h80c0 -83 -67 -150 -150 -150c-42 0 -80 18 -106 44l-16 16c-14 14 -29 20 -49 20c-39 0 -70 -32 -70 -70h-80c0 83 67 150 150 150c44 0 74 -12 106 -44l16 -16
c14 -14 29 -20 49 -20c38 0 70 32 70 70z" />
    <glyph glyph-name="Ccedilla" unicode="&#xc7;" horiz-adv-x="870" 
d="M757 182l77 -77c-72 -72 -170 -117 -291 -120l-19 -38c47 -6 94 -40 94 -97c0 -50 -54 -105 -153 -105c-56 0 -89 20 -118 42l40 40c16 -13 41 -27 73 -27c48 0 71 24 71 50c0 30 -32 53 -99 53l42 85c-248 27 -409 232 -409 512c0 300 185 515 465 515
c127 0 230 -46 304 -120l-77 -77c-64 64 -129 92 -227 92c-196 0 -340 -160 -340 -410s144 -410 340 -410c98 0 163 28 227 92z" />
    <glyph glyph-name="Eacute" unicode="&#xc9;" horiz-adv-x="730" 
d="M650 105v-105h-520v1000h510v-105h-390v-335h380v-105h-380v-350h400zM415 1275h135l-164 -230h-86z" />
    <glyph glyph-name="Ecircumflex" unicode="&#xca;" horiz-adv-x="730" 
d="M650 105v-105h-520v1000h510v-105h-390v-335h380v-105h-380v-350h400zM450 1275l130 -230h-106l-84 144l-84 -144h-106l130 230h120z" />
    <glyph glyph-name="Edieresis" unicode="&#xcb;" horiz-adv-x="730" 
d="M650 105v-105h-520v1000h510v-105h-390v-335h380v-105h-380v-350h400zM335 1220v-110h-110v110h110zM565 1220v-110h-110v110h110z" />
    <glyph glyph-name="Egrave" unicode="&#xc8;" horiz-adv-x="730" 
d="M650 105v-105h-520v1000h510v-105h-390v-335h380v-105h-380v-350h400zM385 1275l115 -230h-86l-164 230h135z" />
    <glyph glyph-name="Iacute" unicode="&#xcd;" horiz-adv-x="380" 
d="M250 1000v-1000h-120v1000h120zM220 1275h135l-164 -230h-86z" />
    <glyph glyph-name="Icircumflex" unicode="&#xce;" horiz-adv-x="380" 
d="M250 1000v-1000h-120v1000h120zM250 1275l130 -230h-106l-84 144l-84 -144h-106l130 230h120z" />
    <glyph glyph-name="Idieresis" unicode="&#xcf;" horiz-adv-x="380" 
d="M250 1000v-1000h-120v1000h120zM130 1220v-110h-110v110h110zM360 1220v-110h-110v110h110z" />
    <glyph glyph-name="Igrave" unicode="&#xcc;" horiz-adv-x="380" 
d="M250 1000v-1000h-120v1000h120zM160 1275l115 -230h-86l-164 230h135z" />
    <glyph glyph-name="Ntilde" unicode="&#xd1;" horiz-adv-x="970" 
d="M840 1000v-1001h-170l-420 841v-840h-120v1000h170l420 -840v840h120zM641 1195h80c0 -83 -67 -150 -150 -150c-42 0 -80 18 -106 44l-16 16c-14 14 -29 20 -49 20c-39 0 -70 -32 -70 -70h-80c0 83 67 150 150 150c44 0 74 -12 106 -44l16 -16c14 -14 29 -20 49 -20
c38 0 70 32 70 70z" />
    <glyph glyph-name="Oacute" unicode="&#xd3;" horiz-adv-x="1020" 
d="M830 500c0 250 -145 410 -320 410s-320 -160 -320 -410s145 -410 320 -410s320 160 320 410zM955 500c0 -300 -185 -515 -445 -515s-445 215 -445 515s185 515 445 515s445 -215 445 -515zM580 1275h135l-164 -230h-86z" />
    <glyph glyph-name="Ocircumflex" unicode="&#xd4;" horiz-adv-x="1020" 
d="M830 500c0 250 -145 410 -320 410s-320 -160 -320 -410s145 -410 320 -410s320 160 320 410zM955 500c0 -300 -185 -515 -445 -515s-445 215 -445 515s185 515 445 515s445 -215 445 -515zM570 1275l130 -230h-106l-84 144l-84 -144h-106l130 230h120z" />
    <glyph glyph-name="Odieresis" unicode="&#xd6;" horiz-adv-x="1020" 
d="M830 500c0 250 -145 410 -320 410s-320 -160 -320 -410s145 -410 320 -410s320 160 320 410zM955 500c0 -300 -185 -515 -445 -515s-445 215 -445 515s185 515 445 515s445 -215 445 -515zM450 1220v-110h-110v110h110zM680 1220v-110h-110v110h110z" />
    <glyph glyph-name="Ograve" unicode="&#xd2;" horiz-adv-x="1020" 
d="M830 500c0 250 -145 410 -320 410s-320 -160 -320 -410s145 -410 320 -410s320 160 320 410zM955 500c0 -300 -185 -515 -445 -515s-445 215 -445 515s185 515 445 515s445 -215 445 -515zM438 1275l115 -230h-86l-164 230h135z" />
    <glyph glyph-name="Otilde" unicode="&#xd5;" horiz-adv-x="1020" 
d="M830 500c0 250 -145 410 -320 410s-320 -160 -320 -410s145 -410 320 -410s320 160 320 410zM955 500c0 -300 -185 -515 -445 -515s-445 215 -445 515s185 515 445 515s445 -215 445 -515zM665 1195h80c0 -83 -67 -150 -150 -150c-42 0 -80 18 -106 44l-16 16
c-14 14 -29 20 -49 20c-39 0 -70 -32 -70 -70h-80c0 83 67 150 150 150c44 0 74 -12 106 -44l16 -16c14 -14 29 -20 49 -20c38 0 70 32 70 70z" />
    <glyph glyph-name="Scaron" unicode="&#x160;" horiz-adv-x="745" 
d="M695 275c0 -175 -128 -295 -330 -295c-147 0 -255 65 -315 125l77 77c58 -58 140 -97 238 -97c126 0 205 80 205 190c0 87 -68 140 -159 170l-141 47c-112 37 -200 114 -200 258c0 123 102 270 325 270c125 0 226 -50 300 -124l-77 -78c-52 52 -131 97 -223 97
c-136 0 -200 -85 -200 -165s48 -125 118 -148l142 -47c121 -40 240 -115 240 -280zM457 1275h106l-130 -230h-120l-130 230h106l84 -144z" />
    <glyph glyph-name="Uacute" unicode="&#xda;" horiz-adv-x="960" 
d="M830 1000v-695c0 -225 -160 -325 -350 -325s-350 100 -350 325v695h120v-695c0 -145 100 -220 230 -220s230 75 230 220v695h120zM525 1275h135l-164 -230h-86z" />
    <glyph glyph-name="Ucircumflex" unicode="&#xdb;" horiz-adv-x="960" 
d="M830 1000v-695c0 -225 -160 -325 -350 -325s-350 100 -350 325v695h120v-695c0 -145 100 -220 230 -220s230 75 230 220v695h120zM540 1275l130 -230h-106l-84 144l-84 -144h-106l130 230h120z" />
    <glyph glyph-name="Udieresis" unicode="&#xdc;" horiz-adv-x="960" 
d="M830 1000v-695c0 -225 -160 -325 -350 -325s-350 100 -350 325v695h120v-695c0 -145 100 -220 230 -220s230 75 230 220v695h120zM420 1220v-110h-110v110h110zM650 1220v-110h-110v110h110z" />
    <glyph glyph-name="Ugrave" unicode="&#xd9;" horiz-adv-x="960" 
d="M830 1000v-695c0 -225 -160 -325 -350 -325s-350 100 -350 325v695h120v-695c0 -145 100 -220 230 -220s230 75 230 220v695h120zM440 1275l115 -230h-86l-164 230h135z" />
    <glyph glyph-name="Yacute" unicode="&#xdd;" horiz-adv-x="752" 
d="M657 1000h145l-366 -538v-462h-120v462l-366 538h145l281 -432zM389 1275h135l-164 -230h-86z" />
    <glyph glyph-name="Ydieresis" unicode="&#x178;" horiz-adv-x="752" 
d="M657 1000h145l-366 -538v-462h-120v462l-366 538h145l281 -432zM316 1195v-110h-110v110h110zM546 1195v-110h-110v110h110z" />
    <glyph glyph-name="Zcaron" unicode="&#x17d;" horiz-adv-x="700" 
d="M650 105v-105h-600v105l460 790h-450v105h580v-105l-460 -790h470zM434 1275h106l-130 -230h-120l-130 230h106l84 -144z" />
    <glyph glyph-name="aacute" unicode="&#xe1;" horiz-adv-x="760" 
d="M530 285v45h-140c-140 0 -195 -73 -195 -135c0 -65 49 -110 135 -110c140 0 200 137 200 200zM640 500v-500h-110v120c-28 -78 -112 -135 -225 -135c-125 0 -225 93 -225 210c0 112 84 230 325 230h125v75c0 73 -65 140 -165 140c-86 0 -140 -29 -180 -69l-70 70
c55 55 134 99 250 99c170 0 275 -103 275 -240zM395 1020h135l-164 -230h-86z" />
    <glyph glyph-name="acircumflex" unicode="&#xe2;" horiz-adv-x="760" 
d="M530 285v45h-140c-140 0 -195 -73 -195 -135c0 -65 49 -110 135 -110c140 0 200 137 200 200zM640 500v-500h-110v120c-28 -78 -112 -135 -225 -135c-125 0 -225 93 -225 210c0 112 84 230 325 230h125v75c0 73 -65 140 -165 140c-86 0 -140 -29 -180 -69l-70 70
c55 55 134 99 250 99c170 0 275 -103 275 -240zM430 1020l130 -230h-106l-84 144l-84 -144h-106l130 230h120z" />
    <glyph glyph-name="adieresis" unicode="&#xe4;" horiz-adv-x="760" 
d="M530 285v45h-140c-140 0 -195 -73 -195 -135c0 -65 49 -110 135 -110c140 0 200 137 200 200zM640 500v-500h-110v120c-28 -78 -112 -135 -225 -135c-125 0 -225 93 -225 210c0 112 84 230 325 230h125v75c0 73 -65 140 -165 140c-86 0 -140 -29 -180 -69l-70 70
c55 55 134 99 250 99c170 0 275 -103 275 -240zM310 995v-110h-110v110h110zM540 995v-110h-110v110h110z" />
    <glyph glyph-name="agrave" unicode="&#xe0;" horiz-adv-x="760" 
d="M530 285v45h-140c-140 0 -195 -73 -195 -135c0 -65 49 -110 135 -110c140 0 200 137 200 200zM640 500v-500h-110v120c-28 -78 -112 -135 -225 -135c-125 0 -225 93 -225 210c0 112 84 230 325 230h125v75c0 73 -65 140 -165 140c-86 0 -140 -29 -180 -69l-70 70
c55 55 134 99 250 99c170 0 275 -103 275 -240zM355 1020l115 -230h-86l-164 230h135z" />
    <glyph glyph-name="aring" unicode="&#xe5;" horiz-adv-x="760" 
d="M530 285v45h-140c-140 0 -195 -73 -195 -135c0 -65 49 -110 135 -110c140 0 200 137 200 200zM435 910c0 41 -34 75 -75 75s-75 -34 -75 -75s34 -75 75 -75s75 34 75 75zM640 500v-500h-110v120c-28 -78 -112 -135 -225 -135c-125 0 -225 93 -225 210
c0 112 84 230 325 230h125v75c0 73 -65 140 -165 140c-86 0 -140 -29 -180 -69l-70 70c55 55 134 99 250 99c170 0 275 -103 275 -240zM470 910c0 -61 -49 -110 -110 -110s-110 49 -110 110s49 110 110 110s110 -49 110 -110z" />
    <glyph glyph-name="atilde" unicode="&#xe3;" horiz-adv-x="760" 
d="M530 285v45h-140c-140 0 -195 -73 -195 -135c0 -65 49 -110 135 -110c140 0 200 137 200 200zM640 500v-500h-110v120c-28 -78 -112 -135 -225 -135c-125 0 -225 93 -225 210c0 112 84 230 325 230h125v75c0 73 -65 140 -165 140c-86 0 -140 -29 -180 -69l-70 70
c55 55 134 99 250 99c170 0 275 -103 275 -240zM524 988h80c0 -83 -67 -150 -150 -150c-42 0 -80 18 -106 44l-16 16c-14 14 -29 20 -49 20c-39 0 -70 -32 -70 -70h-80c0 83 67 150 150 150c44 0 74 -12 106 -44l16 -16c14 -14 29 -20 49 -20c38 0 70 32 70 70z" />
    <glyph glyph-name="ccedilla" unicode="&#xe7;" horiz-adv-x="660" 
d="M550 149l70 -70c-57 -57 -138 -92 -212 -94l-19 -38c47 -6 94 -40 94 -97c0 -50 -54 -105 -153 -105c-56 0 -89 20 -118 42l40 40c16 -13 41 -27 73 -27c48 0 71 24 71 50c0 30 -32 53 -99 53l43 87c-161 29 -280 174 -280 370c0 220 150 375 340 375
c76 0 161 -35 220 -94l-70 -70c-40 40 -94 64 -150 64c-130 0 -225 -115 -225 -275s95 -275 225 -275c56 0 110 24 150 64z" />
    <glyph glyph-name="eacute" unicode="&#xe9;" horiz-adv-x="740" 
d="M180 425h381c-19 143 -99 210 -186 210c-98 0 -176 -80 -195 -210zM680 360v-35h-504c12 -147 102 -240 234 -240c58 0 121 20 165 64l70 -70c-64 -64 -141 -94 -235 -94c-202 0 -350 151 -350 375c0 220 140 375 315 375c176 0 305 -143 305 -375zM405 1020h135
l-164 -230h-86z" />
    <glyph glyph-name="ecircumflex" unicode="&#xea;" horiz-adv-x="740" 
d="M180 425h381c-19 143 -99 210 -186 210c-98 0 -176 -80 -195 -210zM680 360v-35h-504c12 -147 102 -240 234 -240c58 0 121 20 165 64l70 -70c-64 -64 -141 -94 -235 -94c-202 0 -350 151 -350 375c0 220 140 375 315 375c176 0 305 -143 305 -375zM430 1020l130 -230
h-106l-84 144l-84 -144h-106l130 230h120z" />
    <glyph glyph-name="edieresis" unicode="&#xeb;" horiz-adv-x="740" 
d="M180 425h381c-19 143 -99 210 -186 210c-98 0 -176 -80 -195 -210zM680 360v-35h-504c12 -147 102 -240 234 -240c58 0 121 20 165 64l70 -70c-64 -64 -141 -94 -235 -94c-202 0 -350 151 -350 375c0 220 140 375 315 375c176 0 305 -143 305 -375zM315 995v-110h-110
v110h110zM545 995v-110h-110v110h110z" />
    <glyph glyph-name="egrave" unicode="&#xe8;" horiz-adv-x="740" 
d="M180 425h381c-19 143 -99 210 -186 210c-98 0 -176 -80 -195 -210zM680 360v-35h-504c12 -147 102 -240 234 -240c58 0 121 20 165 64l70 -70c-64 -64 -141 -94 -235 -94c-202 0 -350 151 -350 375c0 220 140 375 315 375c176 0 305 -143 305 -375zM350 1020l115 -230
h-86l-164 230h135z" />
    <glyph glyph-name="iacute" unicode="&#xed;" 
d="M230 720v-720h-110v720h110zM225 1020h135l-164 -230h-86z" />
    <glyph glyph-name="icircumflex" unicode="&#xee;" 
d="M230 720v-720h-110v720h110zM235 1020l130 -230h-106l-84 144l-84 -144h-106l130 230h120z" />
    <glyph glyph-name="idieresis" unicode="&#xef;" 
d="M230 720v-720h-110v720h110zM115 995v-110h-110v110h110zM345 995v-110h-110v110h110z" />
    <glyph glyph-name="igrave" unicode="&#xec;" 
d="M230 720v-720h-110v720h110zM125 1020l115 -230h-86l-164 230h135z" />
    <glyph glyph-name="ntilde" unicode="&#xf1;" horiz-adv-x="840" 
d="M720 460v-460h-110v460c0 115 -65 175 -165 175c-125 0 -215 -95 -215 -275v-360h-110v720h110v-120c28 78 112 135 230 135c160 0 260 -105 260 -275zM581 988h80c0 -83 -67 -150 -150 -150c-42 0 -80 18 -106 44l-16 16c-14 14 -29 20 -49 20c-39 0 -70 -32 -70 -70
h-80c0 83 67 150 150 150c44 0 74 -12 106 -44l16 -16c14 -14 29 -20 49 -20c38 0 70 32 70 70z" />
    <glyph glyph-name="oacute" unicode="&#xf3;" horiz-adv-x="780" 
d="M605 360c0 165 -90 275 -215 275c-120 0 -215 -110 -215 -275s95 -275 215 -275s215 110 215 275zM720 360c0 -230 -150 -375 -330 -375s-330 145 -330 375s150 375 330 375s330 -145 330 -375zM419 1020h135l-164 -230h-86z" />
    <glyph glyph-name="ocircumflex" unicode="&#xf4;" horiz-adv-x="780" 
d="M605 360c0 165 -90 275 -215 275c-120 0 -215 -110 -215 -275s95 -275 215 -275s215 110 215 275zM720 360c0 -230 -150 -375 -330 -375s-330 145 -330 375s150 375 330 375s330 -145 330 -375zM450 1020l130 -230h-106l-84 144l-84 -144h-106l130 230h120z" />
    <glyph glyph-name="odieresis" unicode="&#xf6;" horiz-adv-x="780" 
d="M605 360c0 165 -90 275 -215 275c-120 0 -215 -110 -215 -275s95 -275 215 -275s215 110 215 275zM720 360c0 -230 -150 -375 -330 -375s-330 145 -330 375s150 375 330 375s330 -145 330 -375zM330 995v-110h-110v110h110zM560 995v-110h-110v110h110z" />
    <glyph glyph-name="ograve" unicode="&#xf2;" horiz-adv-x="780" 
d="M605 360c0 165 -90 275 -215 275c-120 0 -215 -110 -215 -275s95 -275 215 -275s215 110 215 275zM720 360c0 -230 -150 -375 -330 -375s-330 145 -330 375s150 375 330 375s330 -145 330 -375zM361 1020l115 -230h-86l-164 230h135z" />
    <glyph glyph-name="otilde" unicode="&#xf5;" horiz-adv-x="780" 
d="M605 360c0 165 -90 275 -215 275c-120 0 -215 -110 -215 -275s95 -275 215 -275s215 110 215 275zM720 360c0 -230 -150 -375 -330 -375s-330 145 -330 375s150 375 330 375s330 -145 330 -375zM545 988h80c0 -83 -67 -150 -150 -150c-42 0 -80 18 -106 44l-16 16
c-14 14 -29 20 -49 20c-39 0 -70 -32 -70 -70h-80c0 83 67 150 150 150c44 0 74 -12 106 -44l16 -16c14 -14 29 -20 49 -20c38 0 70 32 70 70z" />
    <glyph glyph-name="scaron" unicode="&#x161;" horiz-adv-x="605" 
d="M555 189c0 -110 -85 -209 -260 -209c-104 0 -196 50 -245 99l70 70c32 -32 97 -69 175 -69c91 0 145 45 145 109c0 50 -32 86 -108 111l-108 36c-115 38 -164 104 -164 199c0 103 83 205 250 205c104 0 180 -44 235 -99l-70 -70c-35 35 -84 69 -165 69
c-90 0 -135 -55 -135 -105c0 -49 32 -77 100 -100l108 -36c122 -41 172 -116 172 -210zM387 1020h106l-130 -230h-120l-130 230h106l84 -144z" />
    <glyph glyph-name="uacute" unicode="&#xfa;" horiz-adv-x="840" 
d="M720 720v-720h-110v120c-28 -78 -112 -135 -230 -135c-160 0 -260 105 -260 275v460h110v-460c0 -115 65 -175 165 -175c125 0 215 95 215 275v360h110zM454 1020h135l-164 -230h-86z" />
    <glyph glyph-name="ucircumflex" unicode="&#xfb;" horiz-adv-x="840" 
d="M720 720v-720h-110v120c-28 -78 -112 -135 -230 -135c-160 0 -260 105 -260 275v460h110v-460c0 -115 65 -175 165 -175c125 0 215 95 215 275v360h110zM480 1020l130 -230h-106l-84 144l-84 -144h-106l130 230h120z" />
    <glyph glyph-name="udieresis" unicode="&#xfc;" horiz-adv-x="840" 
d="M720 720v-720h-110v120c-28 -78 -112 -135 -230 -135c-160 0 -260 105 -260 275v460h110v-460c0 -115 65 -175 165 -175c125 0 215 95 215 275v360h110zM355 995v-110h-110v110h110zM585 995v-110h-110v110h110z" />
    <glyph glyph-name="ugrave" unicode="&#xf9;" horiz-adv-x="840" 
d="M720 720v-720h-110v120c-28 -78 -112 -135 -230 -135c-160 0 -260 105 -260 275v460h110v-460c0 -115 65 -175 165 -175c125 0 215 95 215 275v360h110zM360 1020l115 -230h-86l-164 230h135z" />
    <glyph glyph-name="yacute" unicode="&#xfd;" horiz-adv-x="730" 
d="M595 720h125l-358 -871c-11 -28 -53 -109 -178 -109c-30 0 -72 5 -90 10v95c20 -6 40 -10 61 -10c79 0 94 33 104 58l40 97l-289 730h125l225 -605zM369 1020h135l-164 -230h-86z" />
    <glyph glyph-name="ydieresis" unicode="&#xff;" horiz-adv-x="730" 
d="M595 720h125l-358 -871c-11 -28 -53 -109 -178 -109c-30 0 -72 5 -90 10v95c20 -6 40 -10 61 -10c79 0 94 33 104 58l40 97l-289 730h125l225 -605zM305 995v-110h-110v110h110zM535 995v-110h-110v110h110z" />
    <glyph glyph-name="zcaron" unicode="&#x17e;" horiz-adv-x="610" 
d="M550 100v-100h-490v95l350 530h-340v95h470v-95l-350 -525h360zM389 1020h106l-130 -230h-120l-130 230h106l84 -144z" />
    <glyph glyph-name="notequal" unicode="&#x2260;" horiz-adv-x="750" 
d="M690 410v-90h-322l-49 -195h-75l49 195h-233v90h255l40 160h-295v90h317l54 215h75l-54 -215h238v-90h-260l-40 -160h300z" />
    <glyph glyph-name="partialdiff" unicode="&#x2202;" horiz-adv-x="880" 
d="M645 310c0 110 -79 220 -219 220c-142 0 -221 -110 -221 -220s80 -220 220 -220c141 0 220 110 220 220zM790 500c0 -295 -113 -515 -365 -515c-209 0 -345 145 -345 325c0 170 135 325 345 325c130 0 220 -85 245 -135c0 250 -88 410 -275 410c-96 0 -161 -45 -208 -92
l-77 77c55 55 159 120 285 120c261 0 395 -210 395 -515z" />
    <glyph glyph-name="product" unicode="&#x220f;" horiz-adv-x="1170" 
d="M731 643c0 66 -43 118 -129 118h-125v-235h125c86 0 129 51 129 117zM813 644c0 -111 -79 -187 -211 -187h-125v-287h-79v660h204c132 0 211 -81 211 -186zM1030 500c0 246 -199 445 -445 445s-445 -199 -445 -445s199 -445 445 -445s445 199 445 445zM1085 500
c0 -276 -224 -500 -500 -500s-500 224 -500 500s224 500 500 500s500 -224 500 -500z" />
    <glyph glyph-name="nbspace" unicode="&#xa0;" horiz-adv-x="380" 
 />
    <glyph glyph-name="Euro" unicode="&#x20ac;" horiz-adv-x="890" 
d="M777 182l77 -77c-74 -74 -177 -120 -304 -120c-244 0 -416 164 -456 405h-94v65h86c-1 15 -1 30 -1 45s0 30 1 45h-86v65h94c40 241 212 405 456 405c127 0 230 -46 304 -120l-77 -77c-64 64 -129 92 -227 92c-165 0 -294 -114 -330 -300h410v-65h-418
c-1 -15 -2 -30 -2 -45s1 -30 2 -45h418v-65h-410c36 -186 165 -300 330 -300c98 0 163 28 227 92z" />
    <glyph glyph-name="apple" unicode="&#xf8ff;" horiz-adv-x="1610" 
d="M1298 -111c0 -53 -81 -101 -151 -101c-148 0 -203 23 -292 59s-206 186 -218 244l10 15c50 -66 164 -183 248 -188c11 -1 30 19 37 35c2 5 16 4 16 -5c1 -40 35 -67 72 -67c71 0 131 33 153 92c29 -26 45 -68 70 -68c28 0 38 28 38 70c10 -29 17 -51 17 -86zM543 584
c0 -91 -53 -149 -116 -149s-116 58 -116 149s53 148 116 148s116 -57 116 -148zM1303 117c-46 30 -77 83 -129 83c-47 0 -136 -47 -198 -95c-12 -9 -16 51 -9 56c59 42 100 69 182 106c18 8 23 9 40 1c46 -21 83 -57 114 -93c9 -11 14 -42 0 -58zM923 486
c-9 -40 -37 -66 -66 -66s-47 26 -38 66c8 40 37 67 66 67c30 0 47 -27 38 -67zM1148 511l-24 -112h-26l23 112c6 27 -7 42 -31 42c-13 0 -24 -3 -35 -12c1 7 1 17 2 24c11 7 26 12 42 12c39 0 58 -25 49 -66zM1254 573h41l-5 -23h-40l-23 -107c-3 -15 2 -23 21 -23
c5 0 10 1 16 2l-5 -23c-5 -1 -15 -2 -23 -2c-30 0 -41 20 -37 41l24 112h-34l5 23h34l11 50h26zM1452 554l-20 -17c-7 9 -17 17 -36 17c-22 0 -36 -13 -38 -25c-3 -12 3 -20 19 -25l24 -8c27 -9 36 -28 31 -51c-5 -27 -31 -51 -74 -51c-25 0 -45 12 -54 24l20 17
c7 -7 20 -17 39 -17c22 0 38 12 41 27c2 12 -3 21 -20 27l-25 9c-26 9 -34 25 -29 48c5 25 30 49 71 49c25 0 41 -10 51 -24zM1345 692l-12 -27c-18 22 -25 28 -42 28c-27 0 -72 -19 -100 -38l25 62c14 13 64 26 81 26c15 0 31 -21 48 -51zM610 546h145v38h-145v167l133 196
h-53l-101 -157l-103 157h-52l133 -196v-70c-27 56 -77 90 -140 90c-94 0 -161 -78 -161 -187s67 -187 161 -187c63 0 113 35 140 90v-266h43v165h142v38h-142v122zM150 -281h1311v1312h-746c197 -53 342 -233 342 -447v-19c-9 -6 -16 -13 -20 -21l6 29h-27l-37 -174h27
l18 87c5 26 17 44 31 55c-21 -235 -219 -420 -461 -420c-209 0 -386 138 -444 328v-730zM473 1031h-323v-312c46 152 169 270 323 312zM951 486c12 56 -18 91 -61 91s-87 -35 -99 -91c-12 -55 17 -90 60 -90c44 0 88 35 100 90zM1480 1050v-1350h-1350v1350h1350z" />
  </font>
</defs>
</svg>
