<svg xmlns="http://www.w3.org/2000/svg" xmlns:xlink="http://www.w3.org/1999/xlink" viewBox="0 0 640 640" width="640" height="640">
  <defs>
    <path d="M325.99 97.18l-8.11 19.63 46.31-29.03-90.95 72.1 5.54 69.6 164.21-82.85-47.98 30.4 43.54 7.34h-55.13l-103.03 65.28 4.02 50.53 82.38-29.49 29.88-39.03-19.21 35.21 56.59-20.25-148.61 66.59 20.84 261.9h-75.46l16.7-289.3-166.68-68.54 67.72 20.47-18.3-33.55 27.9 36.46 90.39 27.31 4.07-70.49L109.92 131l43.29 16.11-6.71-23.14 17.23 27.05 89.64 33.36 9.18-158.93 9.55 120.07 33.31-20.89 20.58-27.45z" id="a"/>
  </defs>
  <use xlink:href="#a" fill="#4e1402"/>
</svg>
