<?xml version="1.0" standalone="no"?>
<!DOCTYPE svg PUBLIC "-//W3C//DTD SVG 1.1//EN" "http://www.w3.org/Graphics/SVG/1.1/DTD/svg11.dtd" >
<svg xmlns="http://www.w3.org/2000/svg" xmlns:xlink="http://www.w3.org/1999/xlink" version="1.1">
<metadata>
Created by FontForge 20160407 at Sat Oct 29 22:07:21 2016
 By Jimmy Warting
In 1992, I wanted to design a perfectly faceless typeface of my own. I chose Eau, meaning water in French, as the name. I planned to do two variations; a sanserif and a Roman serif style version. I could not decide on the design details for the Roman variation, so only the sanserif version was completed. Although I think that Eau Sans needs more refinement, I present it here as it was originally designed. At the time of release, I re-formatted the Eau Sans family with numeric characters in three variations: proportional, lining and old-styled figures. This typeface is used for my electronic sound project: parabola. 
</metadata>
<defs>
<font id="Eau-SansBold" horiz-adv-x="880" >
  <font-face 
    font-family="Eau"
    font-weight="700"
    font-stretch="normal"
    units-per-em="1350"
    panose-1="0 0 0 0 0 0 0 0 0 0"
    ascent="1050"
    descent="-300"
    x-height="720"
    cap-height="1000"
    bbox="-100 -300 1588 1288"
    underline-thickness="40"
    underline-position="-266"
    stemh="27"
    stemv="190"
    unicode-range="U+0020-FB02"
  />
<missing-glyph horiz-adv-x="350" 
 />
    <glyph glyph-name=".notdef" horiz-adv-x="350" 
 />
    <glyph glyph-name="space" unicode=" " horiz-adv-x="350" 
 />
    <glyph glyph-name="exclam" unicode="!" horiz-adv-x="415" 
d="M303 183v-183h-191v183h191zM100 1000h215l-42 -720h-131z" />
    <glyph glyph-name="quotedbl" unicode="&#x22;" horiz-adv-x="660" 
d="M135 1000h192l-128 -335h-106zM410 1000h192l-128 -335h-106z" />
    <glyph glyph-name="numbersign" unicode="#" horiz-adv-x="810" 
d="M455 495l42 208h-142l-43 -208h143zM780 822v-119h-158l-42 -208h135v-120h-159l-36 -175h-125l35 175h-142l-35 -175h-126l36 175h-133v120h157l43 208h-136v119h160l36 178h125l-36 -178h143l36 178h124l-35 -178h133z" />
    <glyph glyph-name="dollar" unicode="$" horiz-adv-x="703" 
d="M483 304c0 50 -30 78 -75 100v-215c47 23 75 66 75 115zM303 621v191c-46 -21 -69 -60 -69 -96c0 -46 28 -73 69 -95zM661 311c0 -140 -90 -246 -248 -273v-138h-115v133c-119 9 -205 59 -258 112l103 103c36 -37 88 -67 155 -75v272c-114 39 -238 89 -238 262
c0 116 79 228 238 255v138h115v-134c104 -8 187 -51 246 -110l-103 -103c-35 35 -84 66 -143 74v-249c117 -39 248 -90 248 -267z" />
    <glyph glyph-name="percent" unicode="%" horiz-adv-x="1217" 
d="M287 898c-73 0 -123 -68 -123 -173s50 -173 123 -173s123 68 123 173s-50 173 -123 173zM1053 275c0 105 -50 173 -123 173c-72 0 -122 -68 -122 -173s50 -173 122 -173c73 0 123 68 123 173zM287 1010c146 0 252 -115 252 -285s-106 -285 -252 -285s-252 115 -252 285
s106 285 252 285zM870 1050h127l-650 -1100h-127zM1182 275c0 -170 -105 -285 -252 -285c-146 0 -252 115 -252 285s106 285 252 285c147 0 252 -115 252 -285z" />
    <glyph glyph-name="ampersand" unicode="&#x26;" horiz-adv-x="980" 
d="M614 201l-248 248c-80 -48 -115 -101 -115 -179c0 -84 76 -148 175 -148c76 0 140 27 188 79zM508 785c0 47 -40 95 -100 95s-100 -48 -100 -95c0 -55 28 -87 94 -152c79 52 106 94 106 152zM836 212l213 -212h-234l-89 89c-75 -68 -169 -107 -298 -107
c-221 0 -363 115 -363 277c0 129 69 219 196 292c-92 91 -125 149 -125 239c0 99 93 227 272 227c180 0 270 -128 270 -227c0 -104 -54 -178 -165 -255l192 -192c20 54 31 112 31 207h175c0 -139 -26 -245 -75 -338z" />
    <glyph glyph-name="quoteright" unicode="&#x2019;" horiz-adv-x="390" 
d="M137 1000h193l-128 -335h-107z" />
    <glyph glyph-name="parenleft" unicode="(" horiz-adv-x="500" 
d="M447 -10l-157 -60c-98 153 -182 335 -182 570s84 417 182 570l157 -60c-93 -145 -160 -305 -160 -510s67 -370 160 -510z" />
    <glyph glyph-name="parenright" unicode=")" horiz-adv-x="500" 
d="M392 500c0 -235 -85 -417 -182 -570l-157 60c93 145 160 305 160 510s-67 370 -160 510l157 60c97 -153 182 -335 182 -570z" />
    <glyph glyph-name="asterisk" unicode="*" horiz-adv-x="562" 
d="M501 876l30 -93l-171 -56l106 -145l-79 -58l-106 146l-106 -146l-79 58l106 145l-171 56l30 93l171 -56v180h98v-180z" />
    <glyph glyph-name="plus" unicode="+" horiz-adv-x="760" 
d="M705 552v-125h-263v-262h-124v262h-263v125h263v263h124v-263h263z" />
    <glyph glyph-name="comma" unicode="," horiz-adv-x="390" 
d="M115 183h192l-128 -335h-106z" />
    <glyph glyph-name="hyphen" unicode="-" horiz-adv-x="465" 
d="M405 437v-125h-345v125h345z" />
    <glyph glyph-name="period" unicode="." horiz-adv-x="390" 
d="M290 183v-183h-190v183h190z" />
    <glyph glyph-name="slash" unicode="/" horiz-adv-x="440" 
d="M300 1050h115l-275 -1100h-115z" />
    <glyph glyph-name="zero" unicode="0" horiz-adv-x="900" 
d="M640 500c0 240 -65 365 -190 365s-190 -125 -190 -365s65 -365 190 -365s190 125 190 365zM830 500c0 -310 -142 -515 -380 -515s-380 205 -380 515s142 515 380 515s380 -205 380 -515z" />
    <glyph glyph-name="one" unicode="1" horiz-adv-x="575" 
d="M432 1000v-1000h-177v814c-35 -35 -125 -78 -215 -90v154c85 12 190 77 235 122h157z" />
    <glyph glyph-name="two" unicode="2" horiz-adv-x="780" 
d="M725 158v-158h-660v128c356 322 444 452 444 582c0 83 -54 153 -154 153c-75 0 -126 -35 -173 -82l-114 114c71 71 166 123 300 123c201 0 326 -122 326 -288c0 -168 -111 -331 -369 -572h400z" />
    <glyph glyph-name="three" unicode="3" horiz-adv-x="770" 
d="M708 281c0 -167 -153 -299 -368 -299c-138 0 -239 54 -301 123l115 114c48 -49 103 -82 181 -82c110 0 182 69 182 149c0 81 -72 149 -182 149h-92v158h92c112 0 170 61 170 135c0 75 -63 135 -165 135c-74 0 -129 -36 -175 -82l-114 114c67 66 158 122 289 122
c198 0 345 -119 345 -286c0 -114 -85 -194 -150 -216c88 -28 173 -130 173 -234z" />
    <glyph glyph-name="four" unicode="4" horiz-adv-x="870" 
d="M236 383h269v384zM824 383v-158h-145v-225h-174v225h-445v162l434 613h185v-617h145z" />
    <glyph glyph-name="five" unicode="5" horiz-adv-x="790" 
d="M732 315c0 -189 -144 -333 -362 -333c-141 0 -244 54 -305 123l114 114c48 -49 105 -82 186 -82c116 0 187 84 187 178c0 97 -71 181 -187 181c-50 0 -88 -18 -117 -40l-143 72v472h570v-158h-392v-224c31 15 70 25 119 25c193 0 330 -145 330 -328z" />
    <glyph glyph-name="six" unicode="6" 
d="M634 314c0 94 -66 181 -177 181c-110 0 -176 -87 -176 -181c0 -95 67 -182 176 -182c110 0 177 87 177 182zM814 314c0 -189 -152 -329 -357 -329c-252 0 -380 210 -380 515c0 310 150 515 418 515c132 0 237 -60 297 -120l-114 -114c-42 42 -104 79 -185 79
c-144 0 -230 -122 -234 -323c26 46 108 106 208 106c203 0 347 -144 347 -329z" />
    <glyph glyph-name="seven" unicode="7" horiz-adv-x="775" 
d="M722 1000v-128c-176 -252 -285 -482 -366 -872h-203c92 390 192 622 344 842h-457v158h682z" />
    <glyph glyph-name="eight" unicode="8" horiz-adv-x="860" 
d="M608 286c0 85 -68 159 -178 159s-178 -74 -178 -159s68 -159 178 -159s178 74 178 159zM595 728c0 77 -63 144 -165 144c-103 0 -165 -67 -165 -144s62 -144 165 -144c102 0 165 67 165 144zM798 281c0 -167 -153 -299 -368 -299s-368 132 -368 299c0 104 86 206 171 234
c-63 22 -148 102 -148 216c0 167 146 286 345 286c198 0 345 -119 345 -286c0 -114 -85 -194 -150 -216c87 -28 173 -130 173 -234z" />
    <glyph glyph-name="nine" unicode="9" 
d="M599 686c0 94 -67 181 -177 181c-109 0 -176 -87 -176 -181c0 -95 66 -181 177 -181c110 0 176 86 176 181zM803 500c0 -310 -150 -515 -418 -515c-132 0 -237 60 -297 120l114 114c42 -42 104 -79 185 -79c144 0 230 122 233 323c-26 -46 -107 -105 -207 -105
c-203 0 -347 143 -347 328c0 189 153 329 356 329c253 1 381 -210 381 -515z" />
    <glyph glyph-name="colon" unicode=":" horiz-adv-x="390" 
d="M290 183v-183h-190v183h190zM290 720v-183h-190v183h190z" />
    <glyph glyph-name="semicolon" unicode=";" horiz-adv-x="390" 
d="M115 183h192l-128 -335h-106zM290 720v-183h-190v183h190z" />
    <glyph glyph-name="less" unicode="&#x3c;" horiz-adv-x="440" 
d="M249 400l140 -280h-174l-140 280l140 280h174z" />
    <glyph glyph-name="equal" unicode="=" horiz-adv-x="760" 
d="M705 427v-125h-650v125h650zM705 677v-125h-650v125h650z" />
    <glyph glyph-name="greater" unicode="&#x3e;" horiz-adv-x="440" 
d="M225 680l140 -280l-140 -280h-174l140 280l-140 280h174z" />
    <glyph glyph-name="question" unicode="?" horiz-adv-x="712" 
d="M407 183v-183h-190v183h190zM658 732c0 -99 -41 -160 -100 -215c-6 -14 -62 -54 -69 -66c-59 -56 -91 -94 -91 -171h-170c0 109 38 172 83 218c5 13 60 54 66 66c47 48 83 88 83 163c0 68 -57 136 -142 136c-76 0 -129 -36 -174 -82l-114 114c79 78 169 123 295 123
c203 0 333 -131 333 -286z" />
    <glyph glyph-name="at" unicode="@" horiz-adv-x="1140" 
d="M695 494c18 106 -32 170 -106 170c-76 0 -146 -64 -165 -170c-19 -105 31 -169 104 -169c76 0 148 64 167 169zM1091 510c-15 -167 -142 -297 -278 -297c-73 0 -122 51 -118 121c-35 -77 -130 -124 -215 -124c-126 0 -225 124 -197 284c30 173 167 285 298 285
c62 0 129 -35 148 -89l13 77h135l-69 -389c-6 -40 5 -64 34 -64c65 0 137 91 146 211c19 235 -142 395 -376 395c-247 0 -425 -203 -443 -425c-18 -228 136 -412 374 -412c114 0 216 47 291 113l72 -80c-98 -81 -220 -136 -380 -136c-301 0 -494 236 -474 535
c17 258 241 505 552 505s514 -215 487 -510z" />
    <glyph glyph-name="A" unicode="A" horiz-adv-x="950" 
d="M336 387h278l-139 399zM577 1000l373 -1000h-203l-79 230h-386l-79 -230h-203l372 1000h205z" />
    <glyph glyph-name="B" unicode="B" horiz-adv-x="885" 
d="M633 297c0 78 -59 133 -164 133h-162v-277h162c107 0 164 56 164 144zM470 847h-163v-271h147c95 0 160 55 160 139c0 75 -43 132 -144 132zM825 267c0 -150 -110 -267 -317 -267h-388v1000h387c181 0 298 -111 298 -248c0 -122 -78 -225 -207 -248
c134 -14 227 -105 227 -237z" />
    <glyph glyph-name="C" unicode="C" horiz-adv-x="878" 
d="M740 219l114 -114c-76 -76 -183 -120 -314 -120c-288 0 -480 205 -480 515s192 515 480 515c131 0 238 -44 314 -120l-114 -114c-52 53 -114 77 -195 77c-163 0 -288 -133 -288 -358s125 -358 288 -358c81 0 143 24 195 77z" />
    <glyph glyph-name="D" unicode="D" horiz-adv-x="993" 
d="M735 500c0 225 -138 342 -322 342h-103v-685h103c184 0 322 118 322 343zM933 500c0 -330 -225 -500 -516 -500h-297v1000h297c296 0 516 -170 516 -500z" />
    <glyph glyph-name="E" unicode="E" horiz-adv-x="747" 
d="M672 157v-157h-552v1000h543v-158h-353v-260h342v-158h-342v-267h362z" />
    <glyph glyph-name="F" unicode="F" horiz-adv-x="712" 
d="M672 1000v-158h-362v-260h353v-158h-353v-424h-190v1000h552z" />
    <glyph glyph-name="G" unicode="G" horiz-adv-x="960" 
d="M887 552v-490c-74 -44 -200 -77 -334 -77c-299 0 -493 205 -493 515s193 515 493 515c134 0 254 -46 328 -120l-114 -114c-48 49 -120 77 -207 77c-173 0 -303 -133 -303 -358c0 -228 129 -355 303 -355c48 0 103 11 137 27v222h-184v158h374z" />
    <glyph glyph-name="H" unicode="H" horiz-adv-x="990" 
d="M870 1000v-1000h-190v424h-370v-424h-190v1000h190v-418h370v418h190z" />
    <glyph glyph-name="I" unicode="I" horiz-adv-x="430" 
d="M310 1000v-1000h-190v1000h190z" />
    <glyph glyph-name="J" unicode="J" horiz-adv-x="705" 
d="M585 1000v-713c0 -187 -135 -307 -324 -307c-115 0 -196 50 -261 126l114 113c34 -45 85 -79 147 -79c82 0 134 55 134 147v713h190z" />
    <glyph glyph-name="K" unicode="K" horiz-adv-x="895" 
d="M500 510l410 -510h-240l-360 477v-477h-190v1000h190v-458l347 458h238z" />
    <glyph glyph-name="L" unicode="L" horiz-adv-x="672" 
d="M672 157v-157h-552v1000h190v-843h362z" />
    <glyph glyph-name="M" unicode="M" horiz-adv-x="1280" 
d="M1160 1000v-1000h-175v809l-240 -809h-210l-240 809v-809h-175v1000h280l240 -809l240 809h280z" />
    <glyph glyph-name="N" unicode="N" horiz-adv-x="1015" 
d="M895 1000v-1000h-238l-359 760v-760h-178v1000h238l359 -760v760h178z" />
    <glyph glyph-name="O" unicode="O" horiz-adv-x="1040" 
d="M783 500c0 225 -118 358 -263 358c-150 0 -263 -133 -263 -358s113 -358 263 -358c145 0 263 133 263 358zM980 500c0 -310 -188 -515 -460 -515c-273 0 -460 205 -460 515s187 515 460 515c272 0 460 -205 460 -515z" />
    <glyph glyph-name="P" unicode="P" horiz-adv-x="837" 
d="M612 701c0 78 -55 141 -155 141h-147v-280h147c100 0 155 61 155 139zM807 702c0 -169 -132 -298 -332 -298h-165v-404h-190v1000h355c200 0 332 -133 332 -298z" />
    <glyph glyph-name="Q" unicode="Q" horiz-adv-x="1040" 
d="M783 500c0 225 -118 358 -263 358c-150 0 -263 -133 -263 -358s113 -358 263 -358c145 0 263 133 263 358zM872 166l165 -83l-127 -128l-174 87c-62 -36 -135 -57 -216 -57c-272 0 -460 205 -460 515s188 515 460 515s460 -205 460 -515c0 -128 -40 -246 -108 -334z" />
    <glyph glyph-name="R" unicode="R" horiz-adv-x="885" 
d="M469 845h-160v-276h144c95 0 162 54 162 141c0 79 -45 135 -146 135zM775 338l71 -338h-202l-60 306c-15 74 -52 111 -129 111h-146v-417h-189v1000h368c215 0 320 -122 320 -268c0 -107 -69 -209 -176 -239c86 -15 126 -74 143 -155z" />
    <glyph glyph-name="S" unicode="S" horiz-adv-x="772" 
d="M730 290c0 -180 -134 -310 -364 -310c-153 0 -261 61 -326 125l114 114c46 -47 116 -84 207 -84c103 0 171 67 171 148c0 203 -472 96 -472 447c0 149 118 290 350 290c137 0 243 -51 317 -125l-114 -114c-44 45 -110 84 -190 84c-113 0 -166 -66 -166 -125
c0 -201 473 -95 473 -450z" />
    <glyph glyph-name="T" unicode="T" horiz-adv-x="780" 
d="M775 1000v-155h-290v-845h-190v845h-290v155h770z" />
    <glyph glyph-name="U" unicode="U" horiz-adv-x="995" 
d="M875 1000v-673c0 -225 -158 -347 -378 -347c-219 0 -377 122 -377 347v673h190v-673c0 -124 82 -190 187 -190s188 66 188 190v673h190z" />
    <glyph glyph-name="V" unicode="V" horiz-adv-x="925" 
d="M720 1000h202l-360 -1000h-199l-361 1000h203l257 -771z" />
    <glyph glyph-name="W" unicode="W" horiz-adv-x="1284" 
d="M1088 1000h196l-252 -1000h-224l-166 771l-166 -771h-224l-252 1000h196l169 -775l166 775h221l167 -775z" />
    <glyph glyph-name="X" unicode="X" horiz-adv-x="929" 
d="M588 516l331 -516h-238l-216 373l-218 -373h-237l331 516l-311 484h238l197 -342l195 342h239z" />
    <glyph glyph-name="Y" unicode="Y" horiz-adv-x="831" 
d="M636 1000h237l-362 -567v-433h-191v433l-362 567h237l220 -378z" />
    <glyph glyph-name="Z" unicode="Z" horiz-adv-x="745" 
d="M700 157v-157h-655v148l420 694h-410v158h635v-148l-420 -695h430z" />
    <glyph glyph-name="bracketleft" unicode="[" horiz-adv-x="510" 
d="M445 85v-135h-325v1100h325v-135h-160v-830h160z" />
    <glyph glyph-name="backslash" unicode="\" horiz-adv-x="440" 
d="M140 1050l275 -1100h-115l-275 1100h115z" />
    <glyph glyph-name="bracketright" unicode="]" horiz-adv-x="510" 
d="M390 1050v-1100h-325v135h160v830h-160v135h325z" />
    <glyph glyph-name="asciicircum" unicode="^" horiz-adv-x="450" 
d="M302 1020l123 -230h-128l-72 130l-71 -130h-129l123 230h154z" />
    <glyph glyph-name="underscore" unicode="_" horiz-adv-x="545" 
d="M545 110v-110h-545v110h545z" />
    <glyph glyph-name="quoteleft" unicode="&#x2018;" horiz-adv-x="390" 
d="M188 1000h106l-42 -335h-192z" />
    <glyph glyph-name="a" unicode="a" horiz-adv-x="800" 
d="M515 295v23h-120c-106 0 -152 -56 -152 -108c0 -49 36 -93 110 -93c94 0 162 69 162 178zM690 473v-473h-170v110c-35 -77 -110 -125 -218 -125c-137 0 -237 96 -237 212c0 124 102 233 337 233h113c0 9 1 57 -5 62c-5 59 -67 108 -148 108c-66 0 -118 -25 -158 -61
l-102 102c71 59 157 99 278 99c196 0 310 -117 310 -267z" />
    <glyph glyph-name="b" unicode="b" horiz-adv-x="867" 
d="M630 360c0 145 -75 228 -172 228c-96 0 -173 -83 -173 -228s78 -227 173 -227s172 82 172 227zM812 360c0 -230 -149 -375 -317 -375c-87 0 -185 52 -215 119v-104h-170v1000h175v-377c35 67 130 112 210 112c168 0 317 -145 317 -375z" />
    <glyph glyph-name="c" unicode="c" horiz-adv-x="697" 
d="M555 186l107 -107c-71 -62 -154 -94 -244 -94c-201 0 -363 150 -363 375s162 375 363 375c90 0 173 -32 244 -94l-107 -107c-33 33 -79 54 -130 54c-105 0 -188 -93 -188 -228s83 -227 188 -227c51 0 97 20 130 53z" />
    <glyph glyph-name="d" unicode="d" horiz-adv-x="867" 
d="M582 360c0 145 -77 228 -172 228c-97 0 -173 -83 -173 -228s78 -227 173 -227s172 82 172 227zM758 1000v-1000h-170v104c-31 -67 -129 -119 -216 -119c-167 0 -317 145 -317 375s150 375 317 375c81 0 176 -45 210 -112v377h176z" />
    <glyph glyph-name="e" unicode="e" horiz-adv-x="770" 
d="M244 437h302c-17 109 -73 163 -148 163c-78 0 -136 -59 -154 -163zM725 360v-48h-484c16 -117 93 -187 197 -187c56 0 110 21 144 56l102 -102c-73 -64 -157 -94 -256 -94c-214 0 -373 148 -373 375c0 225 143 375 340 375s330 -142 330 -375z" />
    <glyph glyph-name="f" unicode="f" horiz-adv-x="550" 
d="M513 995v-140c-24 9 -53 15 -79 15c-70 0 -97 -31 -97 -85v-65h168v-140h-168v-580h-175v580h-137v140h137v90c0 107 83 200 223 200c51 0 95 -7 128 -15z" />
    <glyph glyph-name="g" unicode="g" horiz-adv-x="867" 
d="M582 370c0 132 -77 218 -172 218s-173 -86 -173 -218c0 -135 76 -217 173 -217c95 0 172 82 172 217zM758 720v-655c0 -183 -148 -330 -378 -330c-139 0 -231 51 -285 104l100 100c33 -32 91 -64 177 -64c120 0 210 77 210 190v55c-34 -65 -120 -115 -210 -115
c-167 0 -317 145 -317 365s150 365 317 365c97 0 185 -57 216 -121v106h170z" />
    <glyph glyph-name="h" unicode="h" 
d="M770 450v-450h-175v425c0 110 -53 163 -140 163c-97 0 -170 -72 -170 -228v-360h-175v1000h175v-383c32 68 111 118 220 118c156 0 265 -109 265 -285z" />
    <glyph glyph-name="i" unicode="i" horiz-adv-x="395" 
d="M285 720v-720h-175v720h175zM287 1000v-170h-179v170h179z" />
    <glyph glyph-name="j" unicode="j" horiz-adv-x="410" 
d="M300 720v-780c0 -107 -83 -200 -223 -200c-51 0 -94 6 -127 15v140c23 -9 53 -15 78 -15c70 0 97 31 97 85v755h175zM302 1000v-170h-180v170h180z" />
    <glyph glyph-name="k" unicode="k" horiz-adv-x="785" 
d="M460 370l346 -370h-221l-300 335v-335h-175v1000h175v-598l285 318h215z" />
    <glyph glyph-name="l" unicode="l" horiz-adv-x="395" 
d="M285 1000v-1000h-175v1000h175z" />
    <glyph glyph-name="m" unicode="m" horiz-adv-x="1270" 
d="M1160 453v-453h-175v425c0 110 -42 163 -120 163c-71 0 -143 -78 -143 -221v-367h-174v425c0 110 -42 163 -121 163c-71 0 -142 -78 -142 -221v-367h-175v720h170v-113c34 80 99 128 197 128c121 0 188 -73 220 -146c42 90 114 146 218 146c148 0 245 -111 245 -282z" />
    <glyph glyph-name="n" unicode="n" 
d="M770 450v-450h-175v425c0 110 -53 163 -140 163c-97 0 -170 -72 -170 -228v-360h-175v720h170v-111c32 74 114 126 225 126c156 0 265 -109 265 -285z" />
    <glyph glyph-name="o" unicode="o" horiz-adv-x="810" 
d="M573 360c0 145 -71 228 -168 228c-95 0 -168 -83 -168 -228s73 -227 168 -227s168 82 168 227zM755 360c0 -230 -150 -375 -350 -375s-350 145 -350 375s150 375 350 375s350 -145 350 -375z" />
    <glyph glyph-name="p" unicode="p" horiz-adv-x="867" 
d="M630 360c0 145 -75 228 -172 228c-96 0 -173 -83 -173 -228s78 -227 173 -227s172 82 172 227zM812 360c0 -230 -149 -375 -317 -375c-80 0 -175 45 -210 110v-345h-175v970h170v-106c30 69 128 121 215 121c168 0 317 -145 317 -375z" />
    <glyph glyph-name="q" unicode="q" horiz-adv-x="867" 
d="M582 360c0 145 -77 228 -172 228c-97 0 -173 -83 -173 -228s78 -227 173 -227s172 82 172 227zM758 720v-970h-176v345c-34 -65 -129 -110 -210 -110c-167 0 -317 145 -317 375s150 375 317 375c87 0 185 -52 216 -121v106h170z" />
    <glyph glyph-name="r" unicode="r" horiz-adv-x="550" 
d="M528 735v-160c-37 4 -80 4 -112 -4c-84 -18 -131 -92 -131 -213v-358h-175v720h170v-110c37 79 111 125 248 125z" />
    <glyph glyph-name="s" unicode="s" horiz-adv-x="623" 
d="M578 201c0 -111 -90 -221 -288 -221c-105 0 -197 44 -253 99l103 102c29 -30 85 -61 150 -61c75 0 116 34 116 77c0 139 -348 67 -348 328c0 106 97 215 270 215c107 0 187 -41 246 -99l-102 -102c-33 33 -79 61 -140 61c-68 0 -102 -40 -102 -75
c0 -115 348 -59 348 -324z" />
    <glyph glyph-name="t" unicode="t" horiz-adv-x="550" 
d="M513 145v-140c-33 -9 -77 -15 -128 -15c-140 0 -223 93 -223 200v390h-137v140h137v205h175v-205h168v-140h-168v-365c0 -54 27 -85 97 -85c26 0 55 6 79 15z" />
    <glyph glyph-name="u" unicode="u" 
d="M770 720v-720h-170v111c-32 -74 -114 -126 -225 -126c-156 0 -265 109 -265 285v450h175v-425c0 -110 53 -162 140 -162c97 0 170 71 170 227v360h175z" />
    <glyph glyph-name="v" unicode="v" horiz-adv-x="762" 
d="M569 720h193l-288 -720h-191l-283 720h192l185 -537z" />
    <glyph glyph-name="w" unicode="w" horiz-adv-x="1097" 
d="M903 720h184l-208 -720h-198l-133 522l-132 -522h-198l-208 720h184l128 -545l139 545h175l139 -545z" />
    <glyph glyph-name="x" unicode="x" horiz-adv-x="740" 
d="M473 371l247 -371h-205l-145 238l-145 -238h-205l247 371l-236 349h211l127 -214l129 214h211z" />
    <glyph glyph-name="y" unicode="y" horiz-adv-x="762" 
d="M569 720h193l-343 -856c-18 -48 -79 -124 -207 -124c-51 0 -94 6 -127 15v140c23 -9 53 -15 78 -15c57 0 77 18 87 40c8 3 31 63 34 75l-284 725h192l185 -537z" />
    <glyph glyph-name="z" unicode="z" horiz-adv-x="635" 
d="M585 143v-143h-535v128l315 452h-305v140h515v-130l-315 -447h325z" />
    <glyph glyph-name="braceleft" unicode="{" horiz-adv-x="535" 
d="M495 70v-130h-137c-89 0 -161 72 -161 160v215c0 61 -49 110 -109 110h-36v150h36c59 0 109 50 109 110v215c0 88 72 160 161 160h137v-130h-68c-36 0 -65 -29 -65 -65v-205c0 -83 -64 -150 -140 -160c76 -10 140 -77 140 -160v-205c0 -36 29 -65 65 -65h68z" />
    <glyph glyph-name="bar" unicode="|" horiz-adv-x="440" 
d="M278 1000v-1250h-116v1250h116z" />
    <glyph glyph-name="braceright" unicode="}" horiz-adv-x="535" 
d="M482 575v-150h-35c-60 0 -109 -49 -109 -110v-215c0 -88 -72 -160 -161 -160h-138v130h69c36 0 64 29 64 65v205c0 83 65 150 140 160c-75 10 -140 77 -140 160v205c0 36 -28 65 -64 65h-69v130h138c89 0 161 -72 161 -160v-215c0 -60 50 -110 109 -110h35z" />
    <glyph glyph-name="asciitilde" unicode="~" horiz-adv-x="582" 
d="M470 517l80 -78l-58 -57c-29 -30 -70 -48 -116 -48c-45 0 -87 19 -116 48l-17 18c-11 10 -23 14 -37 14c-15 0 -30 -6 -39 -15l-55 -55l-80 78l58 57c29 30 70 48 116 48s84 -16 116 -48l17 -18c11 -10 23 -15 38 -15c14 0 29 7 38 16z" />
    <glyph glyph-name="exclamdown" unicode="&#xa1;" horiz-adv-x="415" 
d="M273 720l42 -720h-215l42 720h131zM303 1000v-182h-191v182h191z" />
    <glyph glyph-name="cent" unicode="&#xa2;" horiz-adv-x="685" 
d="M345 293v414c-68 -30 -115 -107 -115 -207s47 -178 115 -207zM548 326l107 -107c-67 -58 -145 -90 -227 -94v-125h-83v130c-169 29 -297 170 -297 370s128 341 297 369v131h83v-126c82 -3 160 -35 227 -93l-107 -107c-32 31 -74 51 -120 53v-455c46 3 88 23 120 54z" />
    <glyph glyph-name="sterling" unicode="&#xa3;" horiz-adv-x="789" 
d="M742 158v-158h-692v158h100v267h-100v85h100v177c0 182 136 328 325 328c121 0 203 -53 264 -115l-126 -126c-34 34 -76 63 -138 63c-82 0 -142 -70 -142 -150l-1 -177h155v-85h-155v-267h410z" />
    <glyph glyph-name="yen" unicode="&#xa5;" horiz-adv-x="861" 
d="M651 1000h237l-310 -483h183v-85h-235v-70h235v-85h-235v-277h-191v277h-235v85h235v70h-235v85h183l-310 483h237l220 -378z" />
    <glyph glyph-name="florin" unicode="&#x192;" horiz-adv-x="745" 
d="M762 995l-30 -140c-21 9 -50 15 -76 15c-69 0 -103 -31 -114 -85l-35 -168h150v-89h-169l-125 -588c-23 -107 -126 -200 -265 -200c-52 0 -93 7 -125 15l30 140c22 -9 50 -15 76 -15c69 0 102 31 114 85l120 563h-125v89h144l40 193c23 108 126 200 266 200
c51 0 93 -7 124 -15z" />
    <glyph glyph-name="section" unicode="&#xa7;" horiz-adv-x="661" 
d="M429 472c0 65 -76 84 -157 112c-26 -14 -40 -36 -40 -61c0 -65 76 -84 157 -112c26 14 40 36 40 61zM601 476c0 -54 -22 -107 -67 -148c28 -32 46 -74 46 -133c0 -106 -97 -215 -270 -215c-107 0 -188 41 -246 99l102 102c33 -33 79 -61 140 -61c68 0 101 41 101 75
c0 115 -347 59 -347 324c0 54 21 107 66 148c-28 32 -45 74 -45 133c0 106 96 215 270 215c107 0 187 -41 245 -99l-102 -102c-33 33 -78 61 -140 61c-67 0 -101 -41 -101 -75c0 -115 348 -59 348 -324z" />
    <glyph glyph-name="quotesingle" unicode="'" horiz-adv-x="390" 
d="M137 1000h193l-128 -335h-107z" />
    <glyph glyph-name="quotedblleft" unicode="&#x201c;" horiz-adv-x="660" 
d="M188 1000h106l-42 -335h-192zM463 1000h106l-41 -335h-193z" />
    <glyph glyph-name="guillemotleft" unicode="&#xab;" horiz-adv-x="708" 
d="M249 400l140 -280h-174l-140 280l140 280h174zM517 400l140 -280h-174l-140 280l140 280h174z" />
    <glyph glyph-name="guilsinglleft" unicode="&#x2039;" horiz-adv-x="440" 
d="M249 400l140 -280h-174l-140 280l140 280h174z" />
    <glyph glyph-name="guilsinglright" unicode="&#x203a;" horiz-adv-x="440" 
d="M225 680l140 -280l-140 -280h-174l140 280l-140 280h174z" />
    <glyph glyph-name="fi" unicode="&#xfb01;" horiz-adv-x="945" 
d="M513 995v-140c-24 9 -53 15 -79 15c-69 0 -97 -31 -97 -85v-65h168v-140h-168v-580h-175v580h-137v140h137v90c0 107 83 200 223 200c51 0 95 -7 128 -15zM835 720v-720h-175v720h175zM838 1000v-170h-181v170h181z" />
    <glyph glyph-name="fl" unicode="&#xfb02;" horiz-adv-x="945" 
d="M513 995v-140c-24 9 -53 15 -79 15c-69 0 -97 -31 -97 -85v-65h168v-140h-168v-580h-175v580h-137v140h137v90c0 107 83 200 223 200c51 0 95 -7 128 -15zM835 1000v-1000h-175v1000h175z" />
    <glyph glyph-name="endash" unicode="&#x2013;" 
d="M820 437v-125h-760v125h760z" />
    <glyph glyph-name="dagger" unicode="&#x2020;" horiz-adv-x="595" 
d="M570 720v-128h-205v-842h-135v842h-205v128h205v280h135v-280h205z" />
    <glyph glyph-name="daggerdbl" unicode="&#x2021;" horiz-adv-x="595" 
d="M570 128v-128h-205v-250h-135v250h-205v128l205 -1v465h-205v128h205v280h135v-280h205v-128h-205v-465z" />
    <glyph glyph-name="periodcentered" unicode="&#xb7;" horiz-adv-x="390" 
d="M290 491v-183h-190v183h190z" />
    <glyph glyph-name="paragraph" unicode="&#xb6;" horiz-adv-x="860" 
d="M755 1000v-1250h-173v1110h-95v-1110h-172v700c-151 0 -275 124 -275 275s124 275 275 275h440z" />
    <glyph glyph-name="bullet" unicode="&#x2022;" horiz-adv-x="425" 
d="M340 400c0 -70 -57 -128 -128 -128c-70 0 -127 58 -127 128s57 128 127 128c71 0 128 -58 128 -128z" />
    <glyph glyph-name="quotesinglbase" unicode="&#x201a;" horiz-adv-x="385" 
d="M128 183h192l-128 -335h-107z" />
    <glyph glyph-name="quotedblbase" unicode="&#x201e;" horiz-adv-x="660" 
d="M128 183h192l-128 -335h-107zM402 183h193l-128 -335h-107z" />
    <glyph glyph-name="quotedblright" unicode="&#x201d;" horiz-adv-x="660" 
d="M132 1000h193l-128 -335h-107zM407 1000h193l-128 -335h-107z" />
    <glyph glyph-name="guillemotright" unicode="&#xbb;" horiz-adv-x="708" 
d="M225 680l140 -280l-140 -280h-174l140 280l-140 280h174zM493 680l140 -280l-140 -280h-174l140 280l-140 280h174z" />
    <glyph glyph-name="ellipsis" unicode="&#x2026;" horiz-adv-x="960" 
d="M290 183v-183h-190v183h190zM575 183v-183h-190v183h190zM860 183v-183h-190v183h190z" />
    <glyph glyph-name="perthousand" unicode="&#x2030;" horiz-adv-x="1623" 
d="M262 905c-63 0 -103 -69 -103 -180s40 -180 104 -180c63 0 103 69 103 180s-40 180 -104 180zM947 275c0 111 -39 180 -103 180s-103 -69 -103 -180s39 -180 103 -180s103 69 103 180zM1463 275c0 111 -39 180 -103 180s-103 -69 -103 -180s39 -180 103 -180
s103 69 103 180zM263 1010c138 0 227 -120 227 -285s-89 -285 -227 -285c-139 0 -228 120 -228 285s89 285 228 285zM818 1050h123l-644 -1100h-124zM1071 275c0 -165 -89 -285 -227 -285s-228 120 -228 285s90 285 228 285s227 -120 227 -285zM1588 275
c0 -165 -90 -285 -228 -285s-228 120 -228 285s90 285 228 285s228 -120 228 -285z" />
    <glyph glyph-name="questiondown" unicode="&#xbf;" horiz-adv-x="712" 
d="M569 219l114 -114c-79 -78 -170 -123 -295 -123c-203 0 -333 131 -333 286c0 99 41 160 99 215c6 14 63 54 70 66c58 56 91 94 91 171h170c0 -109 -38 -172 -83 -218c-6 -13 -60 -54 -67 -66c-47 -48 -82 -88 -82 -163c0 -69 57 -136 142 -136c75 0 128 36 174 82z
M495 1000v-182h-190v182h190z" />
    <glyph glyph-name="grave" unicode="`" horiz-adv-x="450" 
d="M277 1020l95 -230h-98l-197 230h200z" />
    <glyph glyph-name="acute" unicode="&#xb4;" horiz-adv-x="450" 
d="M173 1020h199l-196 -230h-99z" />
    <glyph glyph-name="circumflex" unicode="&#x2c6;" horiz-adv-x="450" 
d="M302 1020l123 -230h-128l-72 130l-71 -130h-129l123 230h154z" />
    <glyph glyph-name="tilde" unicode="&#x2dc;" horiz-adv-x="571" 
d="M425 988h112c0 -92 -74 -166 -166 -166c-46 0 -87 19 -116 48l-18 17c-10 10 -22 15 -37 15c-30 0 -54 -25 -54 -54h-112c0 92 74 166 166 166c47 0 84 -16 116 -48l18 -17c10 -10 22 -15 37 -15c29 0 54 25 54 54z" />
    <glyph glyph-name="macron" unicode="&#xaf;" horiz-adv-x="450" 
d="M387 987v-117h-325v117h325z" />
    <glyph glyph-name="breve" unicode="&#x2d8;" horiz-adv-x="450" 
d="M307 1000h98c0 -99 -81 -180 -180 -180s-180 81 -180 180h97c0 -45 38 -82 83 -82s82 37 82 82z" />
    <glyph glyph-name="dotaccent" unicode="&#x2d9;" horiz-adv-x="440" 
d="M313 910c0 -51 -42 -92 -93 -92s-93 41 -93 92s42 93 93 93s93 -42 93 -93z" />
    <glyph glyph-name="dieresis" unicode="&#xa8;" horiz-adv-x="415" 
d="M157 998v-166h-152v166h152zM410 998v-166h-153v166h153z" />
    <glyph glyph-name="ring" unicode="&#x2da;" horiz-adv-x="440" 
d="M290 910c0 38 -32 70 -70 70s-70 -32 -70 -70s32 -70 70 -70s70 32 70 70zM335 910c0 -63 -52 -115 -115 -115s-115 52 -115 115s52 115 115 115s115 -52 115 -115z" />
    <glyph glyph-name="cedilla" unicode="&#xb8;" horiz-adv-x="470" 
d="M376 -141c0 -57 -63 -114 -167 -114c-54 0 -99 22 -129 48l50 51c18 -17 41 -29 72 -29c39 0 57 19 57 40c0 24 -28 43 -98 43l50 102h94l-24 -48c48 -5 95 -39 95 -93z" />
    <glyph glyph-name="hungarumlaut" unicode="&#x2dd;" horiz-adv-x="663" 
d="M173 1020h182l-179 -230h-99zM402 1020h184l-181 -230h-99z" />
    <glyph glyph-name="ogonek" unicode="&#x2db;" horiz-adv-x="450" 
d="M317 -149l53 -53c-37 -30 -80 -53 -136 -53c-114 0 -173 58 -173 123c0 53 36 111 104 153l105 -21c-51 -36 -78 -82 -78 -125c0 -33 21 -53 57 -53c27 0 52 14 68 29z" />
    <glyph glyph-name="caron" unicode="&#x2c7;" horiz-adv-x="450" 
d="M297 1020h128l-123 -230h-154l-123 230h129l71 -131z" />
    <glyph glyph-name="emdash" unicode="&#x2014;" horiz-adv-x="1285" 
d="M1225 437v-125h-1165v125h1165z" />
    <glyph glyph-name="AE" unicode="&#xc6;" horiz-adv-x="1183" 
d="M336 387h219v385zM1108 158v-158h-553v230h-306l-129 -230h-220l595 1000h602v-158h-352v-260h343v-158h-343v-266h363z" />
    <glyph glyph-name="ordfeminine" unicode="&#xaa;" horiz-adv-x="575" 
d="M368 705v15h-83c-73 0 -106 -38 -106 -74c0 -35 25 -65 77 -65c65 0 112 48 112 124zM490 828v-328h-118v76c-24 -53 -77 -86 -151 -86c-95 0 -165 67 -165 147c0 86 71 162 234 162h78c0 5 2 39 -3 42c-3 42 -46 76 -103 76c-45 0 -82 -17 -110 -42l-70 71
c49 41 109 68 192 68c137 0 216 -81 216 -186z" />
    <glyph glyph-name="Lslash" unicode="&#x141;" horiz-adv-x="673" 
d="M673 158v-158h-553v388l-61 -30l-52 103l113 57v482h190v-388l58 30l52 -104l-110 -55v-325h363z" />
    <glyph glyph-name="Oslash" unicode="&#xd8;" horiz-adv-x="1040" 
d="M783 500c0 88 -19 163 -49 220l-353 -531c40 -31 87 -47 139 -47c145 0 263 133 263 358zM306 279l352 531c-40 31 -87 48 -138 48c-150 0 -263 -133 -263 -358c0 -89 18 -164 49 -221zM980 500c0 -310 -188 -515 -460 -515c-88 0 -167 21 -234 61l-63 -96h-135l110 166
c-87 90 -138 223 -138 384c0 310 187 515 460 515c88 0 167 -21 234 -61l64 96h135l-111 -166c87 -90 138 -223 138 -384z" />
    <glyph glyph-name="OE" unicode="&#x152;" horiz-adv-x="1410" 
d="M783 500c0 225 -118 358 -263 358c-150 0 -263 -133 -263 -358s113 -358 263 -358c145 0 263 133 263 358zM1335 157v-157h-552v93c-67 -70 -158 -108 -263 -108c-272 0 -460 205 -460 515s188 515 460 515c105 0 196 -37 263 -109v94h542v-158h-352v-260h342v-158h-342
v-267h362z" />
    <glyph glyph-name="ordmasculine" unicode="&#xba;" horiz-adv-x="586" 
d="M409 750c0 101 -48 158 -116 158c-66 0 -116 -57 -116 -158s50 -158 116 -158s116 57 116 158zM293 1010c139 0 243 -100 243 -260s-104 -260 -243 -260s-243 100 -243 260s104 260 243 260z" />
    <glyph glyph-name="ae" unicode="&#xe6;" horiz-adv-x="1223" 
d="M515 295v23h-120c-106 0 -152 -56 -152 -108c0 -49 36 -93 110 -93c94 0 162 69 162 178zM696 437h302c-17 109 -72 163 -148 163c-78 0 -136 -59 -154 -163zM1178 360v-48h-484c16 -117 92 -187 196 -187c57 0 110 21 145 56l102 -102c-74 -64 -157 -94 -257 -94
c-128 0 -232 63 -288 154c-43 -94 -142 -154 -277 -154c-151 0 -250 96 -250 213c0 123 102 232 337 232h113c0 9 1 57 -5 62c-5 59 -67 108 -148 108c-65 0 -118 -25 -158 -61l-102 102c71 60 157 99 278 99c106 0 193 -37 240 -100c57 61 135 95 227 95
c197 0 331 -142 331 -375z" />
    <glyph glyph-name="dotlessi" unicode="&#x131;" horiz-adv-x="395" 
d="M285 720v-720h-175v720h175z" />
    <glyph glyph-name="lslash" unicode="&#x142;" horiz-adv-x="395" 
d="M352 642l52 -104l-119 -59v-479h-175v392l-67 -34l-52 103l119 60v479h175v-392z" />
    <glyph glyph-name="oslash" unicode="&#xf8;" horiz-adv-x="810" 
d="M573 360c0 54 -10 99 -27 135l-215 -343c22 -13 47 -19 74 -19c95 0 168 82 168 227zM265 226l215 342c-22 13 -48 20 -75 20c-95 0 -168 -83 -168 -228c0 -54 10 -99 28 -134zM755 360c0 -230 -150 -375 -350 -375c-57 0 -111 12 -158 34l-43 -69h-113l78 123
c-71 65 -114 164 -114 287c0 230 150 375 350 375c57 0 111 -12 158 -34l43 69h113l-78 -123c71 -65 114 -164 114 -287z" />
    <glyph glyph-name="oe" unicode="&#x153;" horiz-adv-x="1288" 
d="M573 360c0 145 -71 228 -168 228c-95 0 -168 -83 -168 -228s73 -227 168 -227s168 82 168 227zM761 437h302c-17 109 -72 163 -148 163c-78 0 -136 -59 -154 -163zM1243 360v-48h-484c16 -117 92 -187 196 -187c57 0 110 21 145 56l102 -102c-74 -64 -157 -94 -257 -94
c-117 0 -215 48 -277 129c-59 -82 -152 -129 -263 -129c-200 0 -350 145 -350 375s150 375 350 375c108 0 202 -45 258 -123c54 77 144 123 250 123c196 0 330 -142 330 -375z" />
    <glyph glyph-name="germandbls" unicode="&#xdf;" horiz-adv-x="849" 
d="M779 297c0 -180 -128 -312 -347 -312c-29 0 -64 4 -87 9v147c21 -7 42 -11 73 -11c109 0 173 75 173 164s-63 163 -168 163h-78v141h78c87 0 139 62 139 136c0 76 -57 136 -137 136s-140 -65 -140 -141v-729h-175v726c0 162 114 289 317 289c194 0 318 -115 318 -266
c0 -113 -73 -185 -141 -219c104 -36 175 -127 175 -233z" />
    <glyph glyph-name="onesuperior" unicode="&#xb9;" horiz-adv-x="447" 
d="M306 1000v-667h-118v543c-23 -23 -83 -52 -143 -60v103c57 8 127 51 157 81h104z" />
    <glyph glyph-name="mu" unicode="&#xb5;" 
d="M770 720v-720h-170v111c-32 -74 -114 -126 -225 -126c-39 0 -69 11 -90 29v-264h-175v970h175v-425c0 -110 53 -162 140 -162c97 0 170 71 170 227v360h175z" />
    <glyph glyph-name="trademark" unicode="&#x2122;" horiz-adv-x="603" 
d="M230 1000v-55h-66v-195h-68v195h-68v55h202zM540 1000v-250h-64v163l-49 -163h-58l-49 163v-163h-64v250h96l46 -153l46 153h96z" />
    <glyph glyph-name="Eth" unicode="&#xd0;" horiz-adv-x="993" 
d="M735 500c0 225 -138 342 -322 342h-103v-279h108v-126h-108v-279h103c184 0 322 117 322 342zM933 500c0 -330 -225 -500 -515 -500h-298v437h-107v126h107v437h298c295 0 515 -170 515 -500z" />
    <glyph glyph-name="onehalf" unicode="&#xbd;" horiz-adv-x="1198" 
d="M306 1000v-667h-118v543c-23 -23 -83 -52 -143 -60v103c57 8 127 51 157 81h104zM793 1050h123l-650 -1100h-123zM1152 105v-105h-441v85c213 193 296 289 296 396c0 50 -38 94 -101 94c-50 0 -86 -24 -117 -54l-76 75c44 45 102 82 199 82c134 0 219 -83 219 -195
c0 -116 -88 -235 -245 -378h266z" />
    <glyph glyph-name="plusminus" unicode="&#xb1;" horiz-adv-x="760" 
d="M705 208v-126h-650v126h650zM705 637v-125h-262v-262h-125v262h-263v125h263v263h125v-263h262z" />
    <glyph glyph-name="Thorn" unicode="&#xde;" horiz-adv-x="838" 
d="M612 499c0 78 -55 139 -154 139h-148v-276h148c99 0 154 59 154 137zM120 1000h190v-204h165c200 0 332 -131 332 -296c0 -169 -132 -296 -332 -296h-165v-204h-190v1000z" />
    <glyph glyph-name="onequarter" unicode="&#xbc;" horiz-adv-x="1134" 
d="M696 255h179v257zM306 1000v-667h-118v543c-23 -23 -83 -52 -143 -60v103c57 8 127 51 157 81h104zM793 1050h123l-650 -1100h-123zM1088 255v-105h-96v-150h-117v150h-297v109l290 408h124v-412h96z" />
    <glyph glyph-name="brokenbar" unicode="&#xa6;" horiz-adv-x="440" 
d="M278 425v-475h-116v475h116zM278 1050v-475h-116v475h116z" />
    <glyph glyph-name="degree" unicode="&#xb0;" horiz-adv-x="510" 
d="M350 810c0 52 -43 95 -95 95s-95 -43 -95 -95s43 -95 95 -95s95 43 95 95zM460 810c0 -113 -92 -205 -205 -205s-205 92 -205 205s92 205 205 205s205 -92 205 -205z" />
    <glyph glyph-name="thorn" unicode="&#xfe;" horiz-adv-x="868" 
d="M630 367c0 153 -75 235 -172 235c-96 0 -173 -82 -173 -235c0 -152 78 -234 173 -234s172 82 172 234zM813 367c0 -237 -150 -382 -318 -382c-80 0 -175 45 -210 110v-345h-175v1250h175v-363c35 68 130 113 210 113c168 0 318 -145 318 -383z" />
    <glyph glyph-name="threequarters" unicode="&#xbe;" horiz-adv-x="1256" 
d="M817 255h180v257zM495 520c0 -111 -102 -199 -245 -199c-92 0 -159 36 -200 82l76 76c32 -33 69 -54 121 -54c73 0 121 45 121 98c0 54 -48 100 -121 100h-62v105h62c75 0 113 40 113 90s-42 90 -110 90c-49 0 -86 -24 -116 -55l-76 76c44 45 105 82 192 82
c133 0 230 -79 230 -191c0 -75 -56 -129 -100 -144c59 -18 115 -86 115 -156zM914 1050h123l-650 -1100h-123zM1209 255v-105h-96v-150h-116v150h-297v109l290 408h123v-412h96z" />
    <glyph glyph-name="twosuperior" unicode="&#xb2;" horiz-adv-x="537" 
d="M486 438v-105h-441v85c213 193 296 289 296 396c0 50 -38 94 -101 94c-50 0 -86 -24 -117 -54l-76 75c44 45 102 82 199 82c134 0 219 -83 219 -195c0 -116 -88 -235 -245 -378h266z" />
    <glyph glyph-name="registered" unicode="&#xae;" horiz-adv-x="1170" 
d="M592 713h-100v-169h89c59 0 100 35 100 87c0 46 -26 82 -89 82zM778 402l44 -210h-121l-37 191c-9 44 -33 66 -80 66h-92v-257h-114v616h224c132 0 196 -75 196 -164c0 -66 -43 -129 -108 -148c53 -8 78 -45 88 -94zM1002 500c0 231 -186 417 -417 417
s-417 -186 -417 -417s186 -417 417 -417s417 186 417 417zM1085 500c0 -276 -224 -500 -500 -500s-500 224 -500 500s224 500 500 500s500 -224 500 -500z" />
    <glyph glyph-name="minus" unicode="&#x2212;" horiz-adv-x="760" 
d="M705 553v-126h-650v126h650z" />
    <glyph glyph-name="eth" unicode="&#xf0;" 
d="M599 314c0 94 -66 181 -176 181c-111 0 -177 -87 -177 -181c0 -95 67 -181 177 -181c109 0 176 86 176 181zM803 500c0 -305 -128 -515 -380 -515c-204 0 -357 140 -357 329c0 185 144 329 347 329c100 0 182 -60 208 -106c-2 85 -17 157 -47 209l-64 -64l-88 88l64 64
c-28 17 -61 26 -99 26c-81 0 -143 -37 -185 -79l-114 114c60 60 165 120 297 120c87 0 160 -21 221 -61l62 63l89 -89l-59 -58c68 -90 105 -218 105 -370z" />
    <glyph glyph-name="multiply" unicode="&#xd7;" horiz-adv-x="760" 
d="M468 490l209 -209l-88 -88l-209 209l-209 -209l-88 88l209 209l-209 209l88 88l209 -209l209 209l88 -88z" />
    <glyph glyph-name="threesuperior" unicode="&#xb3;" horiz-adv-x="559" 
d="M495 520c0 -111 -102 -199 -245 -199c-92 0 -159 36 -200 82l76 76c32 -33 69 -54 121 -54c73 0 121 45 121 98c0 54 -48 100 -121 100h-62v105h62c75 0 113 40 113 90s-42 90 -110 90c-49 0 -86 -24 -116 -55l-76 76c44 45 105 82 192 82c133 0 230 -79 230 -191
c0 -75 -56 -129 -100 -144c59 -18 115 -86 115 -156z" />
    <glyph glyph-name="copyright" unicode="&#xa9;" horiz-adv-x="1170" 
d="M717 325l69 -68c-47 -47 -113 -74 -193 -74c-176 0 -294 127 -294 317s118 317 294 317c80 0 146 -27 193 -74l-69 -68c-33 33 -70 47 -121 47c-102 0 -179 -82 -179 -222s77 -222 179 -222c51 0 88 14 121 47zM1002 500c0 231 -186 417 -417 417s-417 -186 -417 -417
s186 -417 417 -417s417 186 417 417zM1085 500c0 -276 -224 -500 -500 -500s-500 224 -500 500s224 500 500 500s500 -224 500 -500z" />
    <glyph glyph-name="Aacute" unicode="&#xc1;" horiz-adv-x="950" 
d="M336 387h278l-139 399zM578 1000l372 -1000h-202l-80 230h-385l-80 -230h-203l372 1000h206zM458 1278h199l-197 -230h-98z" />
    <glyph glyph-name="Acircumflex" unicode="&#xc2;" horiz-adv-x="950" 
d="M336 387h278l-139 399zM578 1000l372 -1000h-202l-80 230h-385l-80 -230h-203l372 1000h206zM551 1278l123 -230h-128l-71 130l-72 -130h-128l123 230h153z" />
    <glyph glyph-name="Adieresis" unicode="&#xc4;" horiz-adv-x="950" 
d="M336 387h278l-139 399zM578 1000l372 -1000h-202l-80 230h-385l-80 -230h-203l372 1000h206zM425 1245v-165h-153v165h153zM677 1245v-165h-152v165h152z" />
    <glyph glyph-name="Agrave" unicode="&#xc0;" horiz-adv-x="950" 
d="M336 387h278l-139 399zM578 1000l372 -1000h-202l-80 230h-385l-80 -230h-203l372 1000h206zM489 1288l96 -230h-98l-197 230h199z" />
    <glyph glyph-name="Aring" unicode="&#xc5;" horiz-adv-x="950" 
d="M336 387h278l-139 399zM545 1150c0 38 -32 70 -70 70s-70 -32 -70 -70s32 -70 70 -70s70 32 70 70zM578 1000l372 -1000h-202l-80 230h-385l-80 -230h-203l372 1000h206zM590 1150c0 -63 -52 -115 -115 -115s-115 52 -115 115s52 115 115 115s115 -52 115 -115z" />
    <glyph glyph-name="Atilde" unicode="&#xc3;" horiz-adv-x="950" 
d="M336 387h278l-139 399zM578 1000l372 -1000h-202l-80 230h-385l-80 -230h-203l372 1000h206zM617 1211h112c0 -92 -74 -166 -166 -166c-46 0 -87 19 -116 48l-18 17c-10 10 -22 15 -37 15c-30 0 -54 -25 -54 -54h-112c0 92 74 166 166 166c47 0 84 -16 116 -48l18 -17
c10 -10 22 -15 37 -15c29 0 54 25 54 54z" />
    <glyph glyph-name="Ccedilla" unicode="&#xc7;" horiz-adv-x="878" 
d="M740 219l114 -114c-69 -69 -164 -112 -280 -119l-16 -34c48 -5 94 -39 94 -93c0 -57 -63 -114 -167 -114c-54 0 -98 22 -128 48l49 51c18 -17 42 -29 72 -29c39 0 58 18 58 40c0 24 -28 43 -99 43l45 90c-255 26 -422 223 -422 512c0 310 193 515 480 515
c130 0 238 -44 314 -120l-114 -114c-52 53 -113 77 -195 77c-163 0 -288 -133 -288 -358s125 -358 288 -358c82 0 143 24 195 77z" />
    <glyph glyph-name="Eacute" unicode="&#xc9;" horiz-adv-x="748" 
d="M673 158v-158h-553v1000h543v-158h-353v-260h343v-158h-343v-266h363zM375 1278h200l-197 -230h-99z" />
    <glyph glyph-name="Ecircumflex" unicode="&#xca;" horiz-adv-x="748" 
d="M673 158v-158h-553v1000h543v-158h-353v-260h343v-158h-343v-266h363zM470 1278l123 -230h-128l-71 130l-72 -130h-128l123 230h153z" />
    <glyph glyph-name="Edieresis" unicode="&#xcb;" horiz-adv-x="748" 
d="M673 158v-158h-553v1000h543v-158h-353v-260h343v-158h-343v-266h363zM350 1245v-165h-153v165h153zM602 1245v-165h-152v165h152z" />
    <glyph glyph-name="Egrave" unicode="&#xc8;" horiz-adv-x="748" 
d="M673 158v-158h-553v1000h543v-158h-353v-260h343v-158h-343v-266h363zM395 1278l95 -230h-98l-196 230h199z" />
    <glyph glyph-name="Iacute" unicode="&#xcd;" horiz-adv-x="430" 
d="M310 1000v-1000h-190v1000h190zM203 1278h200l-197 -230h-98z" />
    <glyph glyph-name="Icircumflex" unicode="&#xce;" horiz-adv-x="430" 
d="M310 1000v-1000h-190v1000h190zM291 1278l123 -230h-128l-71 130l-72 -130h-128l123 230h153z" />
    <glyph glyph-name="Idieresis" unicode="&#xcf;" horiz-adv-x="430" 
d="M310 1000v-1000h-190v1000h190zM165 1245v-165h-152v165h152zM418 1245v-165h-153v165h153z" />
    <glyph glyph-name="Igrave" unicode="&#xcc;" horiz-adv-x="430" 
d="M310 1000v-1000h-190v1000h190zM227 1278l96 -230h-99l-196 230h199z" />
    <glyph glyph-name="Ntilde" unicode="&#xd1;" horiz-adv-x="1015" 
d="M895 1000v-1000h-238l-359 760v-760h-178v1000h238l359 -760v760h178zM647 1211h112c0 -92 -74 -166 -166 -166c-46 0 -87 19 -116 48l-18 17c-10 10 -22 15 -37 15c-30 0 -54 -25 -54 -54h-112c0 92 74 166 166 166c47 0 84 -16 116 -48l18 -17c10 -10 22 -15 37 -15
c29 0 54 25 54 54z" />
    <glyph glyph-name="Oacute" unicode="&#xd3;" horiz-adv-x="1040" 
d="M783 500c0 225 -118 358 -263 358c-150 0 -263 -133 -263 -358s113 -358 263 -358c145 0 263 133 263 358zM980 500c0 -310 -188 -515 -460 -515s-460 205 -460 515s188 515 460 515s460 -205 460 -515zM538 1278h199l-196 -230h-99z" />
    <glyph glyph-name="Ocircumflex" unicode="&#xd4;" horiz-adv-x="1040" 
d="M783 500c0 225 -118 358 -263 358c-150 0 -263 -133 -263 -358s113 -358 263 -358c145 0 263 133 263 358zM980 500c0 -310 -188 -515 -460 -515s-460 205 -460 515s188 515 460 515s460 -205 460 -515zM596 1278l123 -230h-128l-71 130l-72 -130h-128l123 230h153z" />
    <glyph glyph-name="Odieresis" unicode="&#xd6;" horiz-adv-x="1040" 
d="M783 500c0 225 -118 358 -263 358c-150 0 -263 -133 -263 -358s113 -358 263 -358c145 0 263 133 263 358zM980 500c0 -310 -188 -515 -460 -515s-460 205 -460 515s188 515 460 515s460 -205 460 -515zM470 1245v-165h-153v165h153zM723 1245v-165h-153v165h153z" />
    <glyph glyph-name="Ograve" unicode="&#xd2;" horiz-adv-x="1040" 
d="M783 500c0 225 -118 358 -263 358c-150 0 -263 -133 -263 -358s113 -358 263 -358c145 0 263 133 263 358zM980 500c0 -310 -188 -515 -460 -515s-460 205 -460 515s188 515 460 515s460 -205 460 -515zM501 1278l96 -230h-98l-197 230h199z" />
    <glyph glyph-name="Otilde" unicode="&#xd5;" horiz-adv-x="1040" 
d="M783 500c0 225 -118 358 -263 358c-150 0 -263 -133 -263 -358s113 -358 263 -358c145 0 263 133 263 358zM980 500c0 -310 -188 -515 -460 -515s-460 205 -460 515s188 515 460 515s460 -205 460 -515zM659 1211h112c0 -92 -74 -166 -166 -166c-46 0 -87 19 -116 48
l-18 17c-10 10 -22 15 -37 15c-30 0 -54 -25 -54 -54h-112c0 92 74 166 166 166c47 0 84 -16 116 -48l18 -17c10 -10 22 -15 37 -15c29 0 54 25 54 54z" />
    <glyph glyph-name="Scaron" unicode="&#x160;" horiz-adv-x="772" 
d="M730 290c0 -180 -134 -310 -364 -310c-153 0 -261 61 -326 125l114 114c46 -47 116 -84 207 -84c103 0 171 67 171 148c0 203 -472 96 -472 447c0 149 118 290 350 290c137 0 243 -51 317 -125l-114 -114c-44 45 -110 84 -190 84c-113 0 -166 -66 -166 -125
c0 -201 473 -95 473 -450zM456 1278h128l-123 -230h-153l-123 230h128l72 -131z" />
    <glyph glyph-name="Uacute" unicode="&#xda;" horiz-adv-x="995" 
d="M875 1000v-672c0 -226 -158 -348 -377 -348c-220 0 -378 122 -378 348v672h190v-672c0 -125 83 -190 188 -190c104 0 187 65 187 190v672h190zM503 1278h199l-196 -230h-99z" />
    <glyph glyph-name="Ucircumflex" unicode="&#xdb;" horiz-adv-x="995" 
d="M875 1000v-672c0 -226 -158 -348 -377 -348c-220 0 -378 122 -378 348v672h190v-672c0 -125 83 -190 188 -190c104 0 187 65 187 190v672h190zM574 1278l123 -230h-128l-71 130l-72 -130h-128l123 230h153z" />
    <glyph glyph-name="Udieresis" unicode="&#xdc;" horiz-adv-x="995" 
d="M875 1000v-672c0 -226 -158 -348 -377 -348c-220 0 -378 122 -378 348v672h190v-672c0 -125 83 -190 188 -190c104 0 187 65 187 190v672h190zM447 1245v-165h-152v165h152zM700 1245v-165h-152v165h152z" />
    <glyph glyph-name="Ugrave" unicode="&#xd9;" horiz-adv-x="995" 
d="M875 1000v-672c0 -226 -158 -348 -377 -348c-220 0 -378 122 -378 348v672h190v-672c0 -125 83 -190 188 -190c104 0 187 65 187 190v672h190zM494 1278l96 -230h-98l-197 230h199z" />
    <glyph glyph-name="Yacute" unicode="&#xdd;" horiz-adv-x="831" 
d="M636 1000h238l-363 -567v-433h-190v433l-363 567h237l221 -378zM405 1278h199l-197 -230h-98z" />
    <glyph glyph-name="Ydieresis" unicode="&#x178;" horiz-adv-x="831" 
d="M636 1000h238l-363 -567v-433h-190v433l-363 567h237l221 -378zM365 1233v-165h-152v165h152zM618 1233v-165h-152v165h152z" />
    <glyph glyph-name="Zcaron" unicode="&#x17d;" horiz-adv-x="745" 
d="M700 158v-158h-655v148l420 694h-410v158h635v-148l-420 -694h430zM445 1278h128l-123 -230h-153l-123 230h127l72 -131z" />
    <glyph glyph-name="aacute" unicode="&#xe1;" horiz-adv-x="800" 
d="M515 295v23h-120c-106 0 -152 -56 -152 -108c0 -49 36 -93 110 -93c94 0 162 69 162 178zM690 473v-473h-170v110c-35 -77 -110 -125 -218 -125c-137 0 -237 96 -237 212c0 124 102 233 337 233h113c0 9 1 57 -5 62c-5 59 -67 108 -148 108c-66 0 -118 -25 -158 -61
l-102 102c71 59 157 99 278 99c196 0 310 -117 310 -267zM378 1020h199l-197 -230h-98z" />
    <glyph glyph-name="acircumflex" unicode="&#xe2;" horiz-adv-x="800" 
d="M515 295v23h-120c-106 0 -152 -56 -152 -108c0 -49 36 -93 110 -93c94 0 162 69 162 178zM690 473v-473h-170v110c-35 -77 -110 -125 -218 -125c-137 0 -237 96 -237 212c0 124 102 233 337 233h113c0 9 1 57 -5 62c-5 59 -67 108 -148 108c-66 0 -118 -25 -158 -61
l-102 102c71 59 157 99 278 99c196 0 310 -117 310 -267zM459 1020l123 -230h-128l-71 130l-72 -130h-128l123 230h153z" />
    <glyph glyph-name="adieresis" unicode="&#xe4;" horiz-adv-x="800" 
d="M515 295v23h-120c-106 0 -152 -56 -152 -108c0 -49 36 -93 110 -93c94 0 162 69 162 178zM690 473v-473h-170v110c-35 -77 -110 -125 -218 -125c-137 0 -237 96 -237 212c0 124 102 233 337 233h113c0 9 1 57 -5 62c-5 59 -67 108 -148 108c-66 0 -118 -25 -158 -61
l-102 102c71 59 157 99 278 99c196 0 310 -117 310 -267zM332 998v-166h-152v166h152zM585 998v-166h-152v166h152z" />
    <glyph glyph-name="agrave" unicode="&#xe0;" horiz-adv-x="800" 
d="M515 295v23h-120c-106 0 -152 -56 -152 -108c0 -49 36 -93 110 -93c94 0 162 69 162 178zM690 473v-473h-170v110c-35 -77 -110 -125 -218 -125c-137 0 -237 96 -237 212c0 124 102 233 337 233h113c0 9 1 57 -5 62c-5 59 -67 108 -148 108c-66 0 -118 -25 -158 -61
l-102 102c71 59 157 99 278 99c196 0 310 -117 310 -267zM392 1020l96 -230h-98l-197 230h199z" />
    <glyph glyph-name="aring" unicode="&#xe5;" horiz-adv-x="800" 
d="M515 295v23h-120c-106 0 -152 -56 -152 -108c0 -49 36 -93 110 -93c94 0 162 69 162 178zM447 910c0 38 -31 70 -69 70c-39 0 -70 -32 -70 -70s31 -70 70 -70c38 0 69 32 69 70zM690 473v-473h-170v110c-35 -77 -110 -125 -218 -125c-137 0 -237 96 -237 212
c0 124 102 233 337 233h113c0 9 1 57 -5 62c-5 59 -67 108 -148 108c-66 0 -118 -25 -158 -61l-102 102c71 59 157 99 278 99c196 0 310 -117 310 -267zM493 910c0 -64 -52 -115 -115 -115c-64 0 -115 51 -115 115s51 115 115 115c63 0 115 -51 115 -115z" />
    <glyph glyph-name="atilde" unicode="&#xe3;" horiz-adv-x="800" 
d="M515 295v23h-120c-106 0 -152 -56 -152 -108c0 -49 36 -93 110 -93c94 0 162 69 162 178zM690 473v-473h-170v110c-35 -77 -110 -125 -218 -125c-137 0 -237 96 -237 212c0 124 102 233 337 233h113c0 9 1 57 -5 62c-5 59 -67 108 -148 108c-66 0 -118 -25 -158 -61
l-102 102c71 59 157 99 278 99c196 0 310 -117 310 -267zM525 988h112c0 -92 -75 -166 -166 -166c-46 0 -88 19 -117 48l-17 17c-11 10 -23 15 -37 15c-30 0 -54 -25 -54 -54h-112c0 92 74 166 166 166c46 0 84 -16 116 -48l17 -17c11 -10 23 -15 38 -15c29 0 54 25 54 54z
" />
    <glyph glyph-name="ccedilla" unicode="&#xe7;" horiz-adv-x="697" 
d="M555 186l107 -107c-62 -54 -135 -87 -211 -92l-17 -35c48 -5 94 -39 94 -93c0 -57 -62 -114 -167 -114c-54 0 -98 22 -129 48l51 51c17 -17 41 -29 71 -29c39 0 58 19 58 40c0 24 -28 43 -99 43l46 91c-173 27 -304 169 -304 371c0 225 162 375 363 375
c90 0 173 -32 244 -94l-107 -107c-33 33 -79 54 -130 54c-105 0 -188 -93 -188 -228s83 -227 188 -227c51 0 97 20 130 53z" />
    <glyph glyph-name="eacute" unicode="&#xe9;" horiz-adv-x="770" 
d="M244 437h302c-17 109 -73 163 -148 163c-78 0 -136 -59 -154 -163zM725 360v-48h-484c16 -117 93 -187 197 -187c56 0 110 21 144 56l102 -102c-73 -64 -157 -94 -256 -94c-214 0 -373 148 -373 375c0 225 143 375 340 375s330 -142 330 -375zM393 1020h199l-196 -230
h-99z" />
    <glyph glyph-name="ecircumflex" unicode="&#xea;" horiz-adv-x="770" 
d="M244 437h302c-17 109 -73 163 -148 163c-78 0 -136 -59 -154 -163zM725 360v-48h-484c16 -117 93 -187 197 -187c56 0 110 21 144 56l102 -102c-73 -64 -157 -94 -256 -94c-214 0 -373 148 -373 375c0 225 143 375 340 375s330 -142 330 -375zM469 1020l123 -230h-128
l-72 130l-71 -130h-128l123 230h153z" />
    <glyph glyph-name="edieresis" unicode="&#xeb;" horiz-adv-x="770" 
d="M244 437h302c-17 109 -73 163 -148 163c-78 0 -136 -59 -154 -163zM725 360v-48h-484c16 -117 93 -187 197 -187c56 0 110 21 144 56l102 -102c-73 -64 -157 -94 -256 -94c-214 0 -373 148 -373 375c0 225 143 375 340 375s330 -142 330 -375zM345 998v-166h-153v166h153
zM598 998v-166h-153v166h153z" />
    <glyph glyph-name="egrave" unicode="&#xe8;" horiz-adv-x="770" 
d="M244 437h302c-17 109 -73 163 -148 163c-78 0 -136 -59 -154 -163zM725 360v-48h-484c16 -117 93 -187 197 -187c56 0 110 21 144 56l102 -102c-73 -64 -157 -94 -256 -94c-214 0 -373 148 -373 375c0 225 143 375 340 375s330 -142 330 -375zM399 1020l96 -230h-98
l-197 230h199z" />
    <glyph glyph-name="iacute" unicode="&#xed;" horiz-adv-x="395" 
d="M285 720v-720h-175v720h175zM201 1020h199l-197 -230h-98z" />
    <glyph glyph-name="icircumflex" unicode="&#xee;" horiz-adv-x="395" 
d="M285 720v-720h-175v720h175zM274 1020l123 -230h-128l-71 130l-72 -130h-128l123 230h153z" />
    <glyph glyph-name="idieresis" unicode="&#xef;" horiz-adv-x="395" 
d="M285 720v-720h-175v720h175zM148 998v-166h-153v166h153zM400 998v-166h-152v166h152z" />
    <glyph glyph-name="igrave" unicode="&#xec;" horiz-adv-x="395" 
d="M285 720v-720h-175v720h175zM194 1020l96 -230h-98l-197 230h199z" />
    <glyph glyph-name="ntilde" unicode="&#xf1;" 
d="M770 450v-450h-175v425c0 110 -53 163 -140 163c-97 0 -170 -72 -170 -228v-360h-175v720h170v-111c32 74 113 126 225 126c157 0 265 -109 265 -285zM579 988h112c0 -92 -74 -166 -166 -166c-46 0 -87 19 -116 48l-18 17c-10 10 -22 15 -37 15c-30 0 -54 -25 -54 -54
h-112c0 92 74 166 166 166c47 0 84 -16 116 -48l18 -17c10 -10 22 -15 37 -15c29 0 54 25 54 54z" />
    <glyph glyph-name="oacute" unicode="&#xf3;" horiz-adv-x="810" 
d="M573 360c0 145 -71 228 -168 228c-95 0 -168 -83 -168 -228s73 -227 168 -227s168 82 168 227zM755 360c0 -230 -150 -375 -350 -375s-350 145 -350 375s150 375 350 375s350 -145 350 -375zM402 1020h200l-197 -230h-98z" />
    <glyph glyph-name="ocircumflex" unicode="&#xf4;" horiz-adv-x="810" 
d="M573 360c0 145 -71 228 -168 228c-95 0 -168 -83 -168 -228s73 -227 168 -227s168 82 168 227zM755 360c0 -230 -150 -375 -350 -375s-350 145 -350 375s150 375 350 375s350 -145 350 -375zM481 1020l123 -230h-128l-71 130l-72 -130h-128l123 230h153z" />
    <glyph glyph-name="odieresis" unicode="&#xf6;" horiz-adv-x="810" 
d="M573 360c0 145 -71 228 -168 228c-95 0 -168 -83 -168 -228s73 -227 168 -227s168 82 168 227zM755 360c0 -230 -150 -375 -350 -375s-350 145 -350 375s150 375 350 375s350 -145 350 -375zM355 998v-166h-152v166h152zM608 998v-166h-153v166h153z" />
    <glyph glyph-name="ograve" unicode="&#xf2;" horiz-adv-x="810" 
d="M573 360c0 145 -71 228 -168 228c-95 0 -168 -83 -168 -228s73 -227 168 -227s168 82 168 227zM755 360c0 -230 -150 -375 -350 -375s-350 145 -350 375s150 375 350 375s350 -145 350 -375zM407 1020l96 -230h-98l-197 230h199z" />
    <glyph glyph-name="otilde" unicode="&#xf5;" horiz-adv-x="810" 
d="M573 360c0 145 -71 228 -168 228c-95 0 -168 -83 -168 -228s73 -227 168 -227s168 82 168 227zM755 360c0 -230 -150 -375 -350 -375s-350 145 -350 375s150 375 350 375s350 -145 350 -375zM544 988h112c0 -92 -74 -166 -166 -166c-45 0 -87 19 -116 48l-17 17
c-11 10 -23 15 -37 15c-30 0 -54 -25 -54 -54h-112c0 92 74 166 166 166c46 0 84 -16 116 -48l17 -17c11 -10 23 -15 38 -15c29 0 53 25 53 54z" />
    <glyph glyph-name="scaron" unicode="&#x161;" horiz-adv-x="623" 
d="M578 201c0 -111 -90 -221 -288 -221c-105 0 -197 44 -253 99l103 102c29 -30 85 -61 150 -61c75 0 116 33 116 77c0 139 -348 67 -348 328c0 106 97 215 270 215c107 0 187 -41 246 -99l-102 -102c-33 33 -79 61 -140 61c-68 0 -102 -41 -102 -75
c0 -115 348 -59 348 -324zM384 1020h128l-123 -230h-153l-123 230h128l71 -131z" />
    <glyph glyph-name="uacute" unicode="&#xfa;" 
d="M770 720v-720h-170v111c-32 -74 -113 -126 -225 -126c-157 0 -265 109 -265 285v450h175v-425c0 -110 53 -162 140 -162c97 0 170 71 170 227v360h175zM435 1020h200l-197 -230h-99z" />
    <glyph glyph-name="ucircumflex" unicode="&#xfb;" 
d="M770 720v-720h-170v111c-32 -74 -113 -126 -225 -126c-157 0 -265 109 -265 285v450h175v-425c0 -110 53 -162 140 -162c97 0 170 71 170 227v360h175zM516 1020l123 -230h-128l-71 130l-72 -130h-128l123 230h153z" />
    <glyph glyph-name="udieresis" unicode="&#xfc;" 
d="M770 720v-720h-170v111c-32 -74 -113 -126 -225 -126c-157 0 -265 109 -265 285v450h175v-425c0 -110 53 -162 140 -162c97 0 170 71 170 227v360h175zM388 998v-166h-153v166h153zM640 998v-166h-153v166h153z" />
    <glyph glyph-name="ugrave" unicode="&#xf9;" 
d="M770 720v-720h-170v111c-32 -74 -113 -126 -225 -126c-157 0 -265 109 -265 285v450h175v-425c0 -110 53 -162 140 -162c97 0 170 71 170 227v360h175zM432 1020l96 -230h-99l-196 230h199z" />
    <glyph glyph-name="yacute" unicode="&#xfd;" horiz-adv-x="762" 
d="M569 720h193l-342 -856c-19 -48 -80 -124 -207 -124c-52 0 -95 7 -128 15v140c23 -9 53 -15 78 -15c57 0 78 18 87 40c8 3 31 63 34 75l-284 725h193l184 -537zM365 1020h199l-197 -230h-98z" />
    <glyph glyph-name="ydieresis" unicode="&#xff;" horiz-adv-x="762" 
d="M569 720h193l-342 -856c-19 -48 -80 -124 -207 -124c-52 0 -95 7 -128 15v140c23 -9 53 -15 78 -15c57 0 78 18 87 40c8 3 31 63 34 75l-284 725h193l184 -537zM330 998v-166h-153v166h153zM582 998v-166h-152v166h152z" />
    <glyph glyph-name="zcaron" unicode="&#x17e;" horiz-adv-x="635" 
d="M585 143v-143h-535v128l315 452h-305v140h515v-130l-315 -447h325zM389 1020h128l-123 -230h-153l-123 230h128l72 -131z" />
    <glyph glyph-name="notequal" unicode="&#x2260;" horiz-adv-x="760" 
d="M705 428v-126l-318 1l-44 -178h-113l45 178l-220 -1v126h251l31 124h-282v126l313 -1l50 198h112l-50 -198l225 1v-126h-256l-31 -124h287z" />
    <glyph glyph-name="partialdiff" unicode="&#x2202;" 
d="M599 314c0 94 -67 181 -176 181c-110 0 -177 -87 -177 -181c0 -95 67 -181 177 -181c109 0 176 86 176 181zM803 500c0 -305 -128 -515 -380 -515c-204 0 -357 140 -357 329c0 185 144 329 347 329c100 0 182 -60 208 -106c-4 201 -89 323 -234 323
c-81 0 -143 -37 -185 -79l-114 114c60 60 165 120 297 120c268 0 418 -205 418 -515z" />
    <glyph glyph-name="product" unicode="&#x220f;" horiz-adv-x="1170" 
d="M697 625c0 48 -34 88 -97 88h-93v-176h93c63 0 97 39 97 88zM814 625c0 -104 -81 -183 -204 -183h-103v-250h-113v616h216c123 0 204 -82 204 -183zM1002 500c0 231 -186 417 -417 417s-417 -186 -417 -417s186 -417 417 -417s417 186 417 417zM1085 500
c0 -276 -224 -500 -500 -500s-500 224 -500 500s224 500 500 500s500 -224 500 -500z" />
    <glyph glyph-name="nbspace" unicode="&#xa0;" horiz-adv-x="380" 
 />
    <glyph glyph-name="Euro" unicode="&#x20ac;" horiz-adv-x="898" 
d="M760 219l114 -114c-76 -76 -183 -120 -314 -120c-249 0 -426 153 -470 395h-100v85h91c-1 12 -1 23 -1 35s0 23 1 35h-91v85h100c44 242 221 395 470 395c131 0 238 -44 314 -120l-114 -114c-52 53 -113 77 -195 77c-132 0 -238 -87 -274 -238h372v-85h-384
c-1 -11 -1 -23 -1 -35s0 -24 1 -35h384v-85h-372c36 -151 142 -238 274 -238c82 0 143 24 195 77z" />
    <glyph glyph-name="apple" unicode="&#xf8ff;" horiz-adv-x="1610" 
d="M1298 -111c0 -53 -81 -101 -151 -101c-148 0 -203 23 -292 59s-206 186 -218 244l10 15c50 -66 164 -183 248 -188c11 -1 30 19 37 35c2 5 16 4 16 -5c1 -40 35 -67 72 -67c71 0 131 33 153 92c29 -26 45 -68 70 -68c28 0 38 28 38 70c10 -29 17 -51 17 -86zM543 584
c0 -91 -53 -149 -116 -149s-116 58 -116 149s53 148 116 148s116 -57 116 -148zM1303 117c-46 30 -77 83 -129 83c-47 0 -136 -47 -198 -95c-12 -9 -16 51 -9 56c59 42 100 69 182 106c18 8 23 9 40 1c46 -21 83 -57 114 -93c9 -11 14 -42 0 -58zM923 486
c-9 -40 -37 -66 -66 -66s-47 26 -38 66c8 40 37 67 66 67c30 0 47 -27 38 -67zM1148 511l-24 -112h-26l23 112c6 27 -7 42 -31 42c-13 0 -24 -3 -35 -12c1 7 1 17 2 24c11 7 26 12 42 12c39 0 58 -25 49 -66zM1254 573h41l-5 -23h-40l-23 -107c-3 -15 2 -23 21 -23
c5 0 10 1 16 2l-5 -23c-5 -1 -15 -2 -23 -2c-30 0 -41 20 -37 41l24 112h-34l5 23h34l11 50h26zM1452 554l-20 -17c-7 9 -17 17 -36 17c-22 0 -36 -13 -38 -25c-3 -12 3 -20 19 -25l24 -8c27 -9 36 -28 31 -51c-5 -27 -31 -51 -74 -51c-25 0 -45 12 -54 24l20 17
c7 -7 20 -17 39 -17c22 0 38 12 41 27c2 12 -3 21 -20 27l-25 9c-26 9 -34 25 -29 48c5 25 30 49 71 49c25 0 41 -10 51 -24zM1345 692l-12 -27c-18 22 -25 28 -42 28c-27 0 -72 -19 -100 -38l25 62c14 13 64 26 81 26c15 0 31 -21 48 -51zM610 546h145v38h-145v167l133 196
h-53l-101 -157l-103 157h-52l133 -196v-70c-27 56 -77 90 -140 90c-94 0 -161 -78 -161 -187s67 -187 161 -187c63 0 113 35 140 90v-266h43v165h142v38h-142v122zM150 -281h1311v1312h-746c197 -53 342 -233 342 -447v-19c-9 -6 -16 -13 -20 -21l6 29h-27l-37 -174h27
l18 87c5 26 17 44 31 55c-21 -235 -219 -420 -461 -420c-209 0 -386 138 -444 328v-730zM473 1031h-323v-312c46 152 169 270 323 312zM951 486c12 56 -18 91 -61 91s-87 -35 -99 -91c-12 -55 17 -90 60 -90c44 0 88 35 100 90zM1480 1050v-1350h-1350v1350h1350z" />
  </font>
</defs>
</svg>
