<svg xmlns="http://www.w3.org/2000/svg" xmlns:xlink="http://www.w3.org/1999/xlink" viewBox="0 0 640 640" width="60" height="60">
  <defs>
    <path d="M177.03 325.75c0 48.36-39.26 87.63-87.63 87.63-48.36 0-87.63-39.27-87.63-87.63 0-48.37 39.27-87.63 87.63-87.63 48.37 0 87.63 39.26 87.63 87.63z" id="a"/>
    <path d="M407.63 325.75c0 48.36-39.27 87.63-87.63 87.63-48.36 0-87.63-39.27-87.63-87.63 0-48.37 39.27-87.63 87.63-87.63 48.36 0 87.63 39.26 87.63 87.63z" id="b"/>
    <path d="M640 325.75c0 48.36-39.26 87.63-87.63 87.63-48.36 0-87.63-39.27-87.63-87.63 0-48.37 39.27-87.63 87.63-87.63 48.37 0 87.63 39.26 87.63 87.63z" id="c"/>
  </defs>
  <use xlink:href="#a" fill="#222222"/>
  <use xlink:href="#b" fill="#222222"/>
  <use xlink:href="#c" fill="#222222"/>
</svg>
