<?xml version="1.0" encoding="UTF-8" standalone="no"?>
<!-- Generator: Adobe Illustrator 16.0.0, SVG Export Plug-In . SVG Version: 6.00 Build 0)  -->

<svg
   xmlns:dc="http://purl.org/dc/elements/1.1/"
   xmlns:cc="http://creativecommons.org/ns#"
   xmlns:rdf="http://www.w3.org/1999/02/22-rdf-syntax-ns#"
   xmlns:svg="http://www.w3.org/2000/svg"
   xmlns="http://www.w3.org/2000/svg"
   xmlns:sodipodi="http://sodipodi.sourceforge.net/DTD/sodipodi-0.dtd"
   xmlns:inkscape="http://www.inkscape.org/namespaces/inkscape"
   version="1.1"
   id="Capa_1"
   x="0px"
   y="0px"
   width="33.665001"
   height="33.665001"
   viewBox="0 0 33.665 33.665"
   xml:space="preserve"
   sodipodi:docname="codepen.svg"
   inkscape:version="0.92.2 (unknown)"><metadata
     id="metadata1750"><rdf:RDF><cc:Work
         rdf:about=""><dc:format>image/svg+xml</dc:format><dc:type
           rdf:resource="http://purl.org/dc/dcmitype/StillImage" /><dc:title></dc:title></cc:Work></rdf:RDF></metadata><defs
     id="defs1748" /><sodipodi:namedview
     pagecolor="#ffffff"
     bordercolor="#666666"
     borderopacity="1"
     objecttolerance="10"
     gridtolerance="10"
     guidetolerance="10"
     inkscape:pageopacity="0"
     inkscape:pageshadow="2"
     inkscape:window-width="1600"
     inkscape:window-height="876"
     id="namedview1746"
     showgrid="false"
     inkscape:zoom="16.83747"
     inkscape:cx="17.512341"
     inkscape:cy="12.472819"
     inkscape:window-x="0"
     inkscape:window-y="24"
     inkscape:window-maximized="1"
     inkscape:current-layer="Capa_1" /><g
     id="g1713"
     transform="translate(0.82411137,1.9580012)"><path
       d="m 16.996783,-0.53526151 c -0.854,-0.56499999 -1.968,-0.55199999 -2.809,0.034 L 1.6037827,8.2637385 c -0.67100001,0.468 -1.07100001,1.233 -1.07100001,2.0519995 v 9.444 c 0,0.84 0.421,1.623 1.12200001,2.086 l 12.7900003,8.455 c 0.836,0.553 1.922,0.553 2.758,0 l 13.044,-8.618 c 0.7,-0.463 1.122,-1.246 1.122,-2.086 v -9.279 c 0,-0.8389995 -0.421,-1.6219995 -1.121,-2.0849995 z m 9.743,10.23000001 -4.821,3.2369995 -4.521,-3.2879995 -0.029,-6.467 z m -12.642,-6.512 v 6.329 l -4.6330003,3.2399995 -4.621,-3.0989995 z m -10.5210003,9.5889995 2.991,2.004 -2.991,2.093 z m 10.6000003,13.493 -9.3310003,-6.258 4.661,-3.258 4.6700003,3.133 z m -1.772,-11.541 3.021,-2.113 3.519,2.313 -3.119,2.095 z m 5.068,11.541 v -6.385 l 4.463,-2.991 4.805,3.159 z m 10.6,-9.288 -3.168,-2.082 3.168,-2.125 z"
       id="path1711"
       style="fill:none;fill-opacity:1;stroke:#000000;stroke-width:1.37952757;stroke-miterlimit:4;stroke-dasharray:none;stroke-opacity:1"
       inkscape:connector-curvature="0" /></g><g
     id="g1715"
     transform="translate(0,1.9999973)" /><g
     id="g1717"
     transform="translate(0,1.9999973)" /><g
     id="g1719"
     transform="translate(0,1.9999973)" /><g
     id="g1721"
     transform="translate(0,1.9999973)" /><g
     id="g1723"
     transform="translate(0,1.9999973)" /><g
     id="g1725"
     transform="translate(0,1.9999973)" /><g
     id="g1727"
     transform="translate(0,1.9999973)" /><g
     id="g1729"
     transform="translate(0,1.9999973)" /><g
     id="g1731"
     transform="translate(0,1.9999973)" /><g
     id="g1733"
     transform="translate(0,1.9999973)" /><g
     id="g1735"
     transform="translate(0,1.9999973)" /><g
     id="g1737"
     transform="translate(0,1.9999973)" /><g
     id="g1739"
     transform="translate(0,1.9999973)" /><g
     id="g1741"
     transform="translate(0,1.9999973)" /><g
     id="g1743"
     transform="translate(0,1.9999973)" /></svg>