<?xml version="1.0" encoding="UTF-8" standalone="no"?>
<svg width="940px" height="728px" viewBox="0 0 940 728" version="1.1" xmlns="http://www.w3.org/2000/svg" xmlns:xlink="http://www.w3.org/1999/xlink" xmlns:sketch="http://www.bohemiancoding.com/sketch/ns">
    <title>large</title>
    <description>Created with Sketch (http://www.bohemiancoding.com/sketch)</description>
    <defs>
        <linearGradient x1="50%" y1="88.7514962%" x2="50%" y2="100%" id="linearGradient-1">
            <stop stop-color="#C4C2C2" offset="0%"></stop>
            <stop stop-color="#DCDCDC" offset="33.3487934%"></stop>
            <stop stop-color="#DBDBDB" offset="100%"></stop>
        </linearGradient>
        <linearGradient x1="50%" y1="0%" x2="50%" y2="100%" id="linearGradient-2">
            <stop stop-color="#191919" offset="0%"></stop>
            <stop stop-color="#070707" offset="100%"></stop>
        </linearGradient>
        <linearGradient x1="50%" y1="0%" x2="50%" y2="100%" id="linearGradient-3">
            <stop stop-color="#D8D8D8" offset="0%"></stop>
            <stop stop-color="#D6D6D6" offset="100%"></stop>
        </linearGradient>
    </defs>
    <g id="Page 1" fill="#D8D8D8" fill-rule="evenodd">
        <g id="large">
            <g id="iMac">
                <path d="M555.828194,645 L566.399796,720.072334 C567.016347,724.450663 563.93578,728 559.510144,728 L370.489892,728 C366.068291,728 362.984162,724.447304 363.60024,720.072334 L374.171842,645 Z M555.828194,645" id="base" fill="url(#linearGradient-1)"></path>
                <g id="upper">
                    <path d="M19.9998697,0 C8.95424668,0 0,8.95190811 0,19.9925395 L0,560 L940,560 L940,19.9925395 C940,8.95096482 931.053918,0 920.00013,0 L19.9998697,0 Z M19.9998697,0" id="bezel" fill="url(#linearGradient-2)"></path>
                    <path d="M37,36 L37,524 L903,524 L903,36 L37,36 Z M37,36" id="panel" fill="#4A4A4A"></path>
                    <path d="M0,560 L0,624.990702 C0,636.041532 8.94608221,645 19.9998697,645 L920.00013,645 C931.045753,645 940,636.044147 940,624.990702 L940,560 L0,560 Z M0,560" id="frame bottom" fill="url(#linearGradient-3)"></path>
                </g>
                <path d="M462.468302,590.694192 C463.693047,590.694192 465.170684,590.948243 466.901561,591.456696 C468.64846,591.965498 469.807719,592.21955 470.379337,592.21955 C471.113975,592.21955 472.314337,591.932605 473.979727,591.358365 C475.645116,590.784475 477.090358,590.49718 478.314755,590.49718 C480.323255,590.49718 482.111258,591.038526 483.678766,592.121218 C484.560401,592.744449 485.434025,593.589187 486.299289,594.655433 C484.993033,595.771019 484.037899,596.763429 483.433886,597.632662 C482.339766,599.20736 481.79288,600.946177 481.79288,602.848762 C481.79288,604.931913 482.372509,606.810003 483.531768,608.483382 C484.691027,610.156412 486.013655,611.214259 487.5,611.657274 C486.878919,613.674987 485.850286,615.784383 484.413404,617.981962 C482.241884,621.27833 480.086387,622.926514 477.94761,622.926514 C477.09837,622.926514 475.922739,622.657066 474.420719,622.11467 C472.934722,621.572274 471.677581,621.302825 470.648948,621.302825 C469.619967,621.302825 468.419953,621.582772 467.048558,622.139165 C465.693187,622.713055 464.591055,623 463.741814,623 C461.178417,623 458.663787,620.819918 456.198272,616.456254 C453.732757,612.141231 452.5,607.909142 452.5,603.759288 C452.499997,599.904427 453.438867,596.763429 455.316602,594.335594 C457.210534,591.907759 459.594503,590.694192 462.468267,590.694192 M477.89846,581 C477.963599,581.21327 478.004703,581.401933 478.021074,581.565912 C478.037098,581.729995 478.045458,581.894009 478.045458,582.058022 C478.045458,583.107856 477.800578,584.255951 477.310819,585.502762 C476.820712,586.749223 476.045318,587.905751 474.983942,588.971997 C474.069562,589.874124 473.163195,590.480908 472.265187,590.792698 C471.693918,590.973263 470.828306,591.112537 469.669047,591.210868 C469.70179,588.717596 470.346558,586.560609 471.604048,584.739908 C472.87756,582.919207 474.975582,581.672571 477.89846,581.000175" id="branding" fill="#000000"></path>
                <g id="camera">
                    <path d="M465,25 C467.209139,25 469,23.2091391 469,21 C469,18.7908609 467.209139,17 465,17 C462.790861,17 461,18.7908609 461,21 C461,23.2091391 462.790861,25 465,25 Z M465,25" id="lens" fill="#141414"></path>
                    <path d="M465,23 C466.10457,23 467,22.1045696 467,21 C467,19.8954304 466.10457,19 465,19 C463.89543,19 463,19.8954304 463,21 C463,22.1045696 463.89543,23 465,23 Z M465,23" id="aperture" fill-opacity="0.695714614" fill="#190E37"></path>
                </g>
            </g>
        </g>
    </g>
</svg>
