<?xml version="1.0" encoding="UTF-8" standalone="no"?>
<svg
   xmlns:dc="http://purl.org/dc/elements/1.1/"
   xmlns:cc="http://creativecommons.org/ns#"
   xmlns:rdf="http://www.w3.org/1999/02/22-rdf-syntax-ns#"
   xmlns:svg="http://www.w3.org/2000/svg"
   xmlns="http://www.w3.org/2000/svg"
   xml:space="preserve"
   style="enable-background:new 0 0 612 612;"
   viewBox="0 0 612 612"
   height="612px"
   width="612px"
   y="0px"
   x="0px"
   id="Capa_1"
   version="1.1"><metadata
     id="metadata44"><rdf:RDF><cc:Work
         rdf:about=""><dc:format>image/svg+xml</dc:format><dc:type
           rdf:resource="http://purl.org/dc/dcmitype/StillImage" /><dc:title></dc:title></cc:Work></rdf:RDF></metadata><defs
     id="defs42" /><g
     id="g7"><g
       id="instagram"><g
         id="g4"><path
           id="path2"
           d="m 1929.2793,-112.21975 h -56.158 c -18.346,0 -33.281,14.936004 -33.281,33.281004 v 56.144 c 0,18.3450002 14.936,33.281 33.281,33.281 h 56.158 c 18.345,0 33.281,-14.9359998 33.281,-33.281 v -56.144 c 0,-18.346 -14.936,-33.281004 -33.281,-33.281004 z m 4.138,89.425004 c 0,2.288 -1.851,4.138 -4.138,4.138 h -56.158 c -2.288,0 -4.139,-1.851 -4.139,-4.138 v -56.144 c 0,-2.288 1.865,-4.138 4.139,-4.138 h 56.158 c 2.272,0 4.138,1.851 4.138,4.138 z m -36.662,-167.004004 h -349.714 c -72.304,0 -131.143,58.839 -131.143,131.143004 V 276.48625 c 0,72.305 58.839,131.143 131.143,131.143 h 349.714 c 72.303,0 131.143,-58.838 131.143,-131.143 V -58.655746 c 0,-72.304004 -58.84,-131.143004 -131.143,-131.143004 z m 102,466.285 c 0,56.246 -45.755,102 -102,102 h -349.714 c -56.246,0 -102,-45.754 -102,-102 V 57.915254 h 146.895 c -27.802,30.979 -44.895,71.763996 -44.895,116.570996 0,96.42 78.438,174.857 174.857,174.857 96.419,0 174.857,-78.438 174.857,-174.857 0,-44.807 -17.093,-85.591996 -44.895,-116.570996 h 146.895 z M 1721.8983,28.772254 c 80.347,0 145.714,65.368 145.714,145.713996 0,80.348 -65.367,145.715 -145.714,145.715 -80.347,0 -145.714,-65.367 -145.714,-145.715 0,-80.345996 65.367,-145.713996 145.714,-145.713996 z m 276.857,0 h -180.409 c -27.671,-18.375 -60.807,-29.14299976 -96.448,-29.14299976 -35.627,0 -68.777,10.76799976 -96.448,29.14299976 h -180.409 v -87.428 c 0,-56.246004 45.754,-102.000004 102,-102.000004 h 349.714 c 56.245,0 102,45.754 102,102.000004 z m -276.857,247.713996 c 56.246,0 102,-45.754 102,-102 0,-56.244 -45.754,-101.999996 -102,-101.999996 -56.246,0 -102,45.754996 -102,101.999996 0,56.246 45.754,102 102,102 z m 0,-174.856 c 40.174,0 72.857,32.685 72.857,72.856 0,40.174 -32.684,72.857 -72.857,72.857 -40.173,0 -72.857,-32.684 -72.857,-72.857 0,-40.172 32.684,-72.856 72.857,-72.856 z" /><path
           id="path826"
           d="m 338.47122,600.57169 c 35.90194,-4.31814 66.38706,-13.21629 97.28623,-28.39644 47.91221,-23.53829 87.90025,-58.69267 117.1067,-102.95116 27.92701,-42.31966 43.99797,-89.05629 48.17665,-140.10474 0.80785,-9.86949 0.80941,-35.72912 0,-46.03292 C 592.93346,179.49561 531.06585,87.679869 437.93834,41.02726 400.48035,22.262539 360.82101,12.06503 318.20437,10.240327 235.21071,6.6868533 155.55839,37.674454 96.635294,96.438594 78.425871,114.59891 64.018101,133.07277 50.667567,155.3791 c -5.547228,9.26841 -16.479176,31.44819 -20.345924,41.27974 -9.556845,24.29911 -16.613258,53.01442 -19.320444,78.62252 -1.1344316,10.73093 -1.6377418,29.99572 -1.1315807,43.31161 4.0767047,107.24475 67.0332927,204.27258 164.0751617,252.87025 32.18911,16.12004 70.35369,26.78058 107.22519,29.95136 10.44614,0.89834 47.33607,0.35566 57.30125,-0.84289 z m -47.856,-24.3149 c -16.74735,-0.98165 -34.80746,-3.7679 -51.00442,-7.86885 -11.22645,-2.84246 -12.29772,-3.18022 -12.17291,-3.83804 0.14067,-0.74112 81.38583,-233.65935 82.30281,-235.95026 0.65189,-1.62863 4.32696,8.10535 43.46074,115.11197 24.51058,67.02125 42.50928,117.11638 42.18758,117.41925 -0.6984,0.65754 -12.41134,4.42001 -20.39611,6.55167 -25.8575,6.90311 -57.69439,10.1383 -84.37769,8.57426 z M 178.87829,545.04911 C 133.19433,520.45289 96.494662,484.96128 71.167902,440.88427 51.952693,407.44336 40.697165,372.32603 36.45593,332.58263 c -1.25934,-11.80094 -1.426382,-38.83691 -0.311254,-50.37475 2.79374,-28.9054 9.422786,-55.44722 20.353472,-81.49271 l 2.621077,-6.24547 0.837232,1.83766 c 1.634517,3.58769 129.276153,353.20946 129.121383,353.67497 -0.0866,0.26041 -4.67639,-1.95956 -10.19955,-4.93322 z m 257.49825,-3.25389 c 3.23386,-8.11745 88.02975,-249.61761 90.37283,-257.38344 10.8162,-35.84862 16.94702,-70.40508 17.0342,-96.01337 0.0189,-5.54864 0.15778,-10.08844 0.30862,-10.08844 0.50698,0 6.53183,12.45774 10.41672,21.53887 26.20214,61.24884 28.75043,130.76829 7.10987,193.96769 -21.01378,61.36911 -64.15081,113.88474 -120.30403,146.4599 -5.06051,2.93564 -5.56439,3.09063 -4.93821,1.51879 z M 188.99993,327.76768 C 162.02976,248.24983 139.96325,182.46812 139.96325,181.5861 c 0,-3.11448 0.94356,-3.27613 19.12333,-3.27613 14.466,0 16.97545,-0.13922 17.82566,-0.98949 0.80765,-0.80766 0.98949,-2.65094 0.98949,-10.02998 0,-11.36597 0.0353,-11.31302 -7.19422,-10.76379 -6.92987,0.52648 -39.77273,1.48951 -68.27596,2.00203 -22.888517,0.41156 -23.50412,0.39113 -22.885316,-0.75998 1.389287,-2.58438 10.349007,-14.99687 14.993092,-20.77092 C 160.95162,54.426714 267.92,18.258461 370.9026,43.553606 412.3435,53.732537 450.97786,73.86403 483.39183,102.16918 l 4.81581,4.20536 -5.07717,0.44291 c -23.10887,2.0158 -38.88934,16.67864 -42.08244,39.1021 -0.92924,6.52551 -0.32056,18.70725 1.25661,25.14907 2.9052,11.86592 6.74036,20.01591 19.36062,41.14283 14.30737,23.9511 20.23233,37.57872 23.86223,54.88402 2.0468,9.75798 2.8054,29.87767 1.58124,41.93991 -2.03734,20.07592 -5.51197,33.55128 -20.22454,78.43523 -22.21662,67.77666 -26.65954,81.12382 -27.0041,81.12382 -0.19156,0 -22.11873,-64.13131 -48.72707,-142.51405 -31.44624,-92.63421 -48.30534,-143.15329 -48.16896,-144.34051 0.36255,-3.1562 1.76074,-3.41037 18.81697,-3.42061 11.17307,-0.007 15.66824,-0.21876 16.21438,-0.76489 1.14787,-1.14789 1.05004,-19.62542 -0.10901,-20.58734 -0.64015,-0.53129 -4.84975,-0.557 -16.21437,-0.0991 -38.60108,1.55529 -111.26206,1.35545 -135.33619,-0.37222 -7.59539,-0.54508 -7.52462,-0.64661 -7.52462,10.79481 0,7.37901 0.18183,9.22231 0.9895,10.02995 0.84662,0.84664 3.27878,0.99085 16.84406,0.99879 16.87456,0.01 17.84984,0.16261 20.03978,3.13915 0.63703,0.86582 10.19839,26.28264 21.24749,56.48183 l 20.08926,54.90761 -29.68753,89.74597 c -16.32813,49.3603 -29.8292,89.74731 -30.00235,89.74886 -0.17313,0 -22.38134,-65.05714 -49.35152,-144.57499 z"
           style="fill:none;stroke:#000000;stroke-width:19.09273529;stroke-miterlimit:4;stroke-dasharray:none;stroke-opacity:1" /></g></g></g><g
     id="g9" /><g
     id="g11" /><g
     id="g13" /><g
     id="g15" /><g
     id="g17" /><g
     id="g19" /><g
     id="g21" /><g
     id="g23" /><g
     id="g25" /><g
     id="g27" /><g
     id="g29" /><g
     id="g31" /><g
     id="g33" /><g
     id="g35" /><g
     id="g37" /></svg>